<?xml version="1.0" standalone="no"?>
<!DOCTYPE svg PUBLIC "-//W3C//DTD SVG 1.1//EN" "http://www.w3.org/Graphics/SVG/1.1/DTD/svg11.dtd" >
<svg xmlns="http://www.w3.org/2000/svg" xmlns:xlink="http://www.w3.org/1999/xlink" version="1.1">
<metadata>
Created by FontForge 20170731 at Fri Dec 13 06:46:57 2019
 By Aleksey,,,
Copyright(c) Founder Electronics Co.,Ltd.2009 LG
</metadata>
<defs>
<font id="FZZJ-TTYBFONT" horiz-adv-x="1000" >
  <font-face 
    font-family="FZZJ-TTYBFONT"
    font-weight="400"
    font-stretch="normal"
    units-per-em="1000"
    panose-1="2 1 6 0 1 1 1 1 1 1"
    ascent="860"
    descent="-140"
    x-height="396"
    cap-height="548"
    bbox="17 -20 915.25 738"
    underline-thickness="50"
    underline-position="-165"
    unicode-range="U+0021-9898"
  />
<missing-glyph 
d="M26 177q0 21 5.5 30t25.5 11q6 0 13.5 -8.5t7.5 -14.5q0 -18 -9 -28t-25 -12q-11 -2 -14.5 5.5t-3.5 16.5zM109 526q2 16 3.5 18.5t12 3t16.5 -3t8 -15.5q2 -7 -2 -15l-8 -14q-4 -8 -9 -29q-24 -106 -27 -124t-8.5 -32t-12.5 -27.5t-20 -14.5l-12 15z" />
    <glyph glyph-name=".notdef" 
d="M26 177q0 21 5.5 30t25.5 11q6 0 13.5 -8.5t7.5 -14.5q0 -18 -9 -28t-25 -12q-11 -2 -14.5 5.5t-3.5 16.5zM109 526q2 16 3.5 18.5t12 3t16.5 -3t8 -15.5q2 -7 -2 -15l-8 -14q-4 -8 -9 -29q-24 -106 -27 -124t-8.5 -32t-12.5 -27.5t-20 -14.5l-12 15z" />
    <glyph glyph-name=".null" horiz-adv-x="0" 
 />
    <glyph glyph-name="nonmarkingreturn" horiz-adv-x="333" 
 />
    <glyph glyph-name="exclam" unicode="!" horiz-adv-x="181" 
d="M26 177q0 21 5.5 30t25.5 11q6 0 13.5 -8.5t7.5 -14.5q0 -18 -9 -28t-25 -12q-11 -2 -14.5 5.5t-3.5 16.5zM109 526q2 16 3.5 18.5t12 3t16.5 -3t8 -15.5q2 -7 -2 -15l-8 -14q-4 -8 -9 -29q-24 -106 -27 -124t-8.5 -32t-12.5 -27.5t-20 -14.5l-12 15z" />
    <glyph glyph-name="quotedbl" unicode="&#x22;" horiz-adv-x="200" 
d="M134 582q5 4 11 7t13.5 3t8 -8.5t0.5 -13.5q0 -8 -0.5 -13t-4.5 -12q-8 -5 -17.5 -14.5t-20.5 -19t-22 -16.5t-21 -7q-5 0 -15.5 2.5t-10.5 7.5v5zM106 652q6 0 15 -1t9 -11v-3q-1 -3 -3 -11q-1 -4 -2 -7l-51 -51h-35q0 5 7.5 18.5t18 28t22 26t19.5 11.5z" />
    <glyph glyph-name="numbersign" unicode="#" horiz-adv-x="300" 
d="M166 193q0 15 2 32t2 38q-7 0 -18 1.5t-21.5 1t-19 -4.5t-9.5 -13q0 -2 -1 -9l-2 -17q0 -9 -1 -17t-1 -10.5t-2 -8t-4.5 -12t-4.5 -11.5l-3 -9h-7q-11 0 -16 9.5t-5 18.5q0 20 4 40t4 40l-29 2q-4 0 -5 5v13q0 4 5 5l38 10l30 115v13q-17 -3 -32.5 3.5t-23.5 20.5v2
q0 4 5 6q4 -1 18 -1t18.5 0.5t14.5 2.5q4 1 9 1l18 83q2 4 7 4h8q9 0 16 -4.5t7 -13.5q0 -12 -6 -28t-8 -28h41l1 8q2 8 3.5 19t3 19.5t9.5 19t26 10.5q15 -9 8 -67q0 -2 3 -3.5t6.5 -4.5t6.5 -7t3 -10.5t-4 -9.5t-9 -4.5t-10.5 -3t-9.5 -6.5q-1 -7 -3.5 -22t-5.5 -34
t-5.5 -34t-3.5 -22q-1 -2 0 -8t1 -7q4 0 13.5 -3t13.5 -2q2 0 7 5.5t7 6.5h2q4 0 8 -4t7 -10.5t4.5 -12t1.5 -7.5q0 -5 -8 -7l-11 -4q-3 0 -9.5 -1t-13.5 -1t-13.5 -0.5t-9.5 -0.5l-5 -24q-3 -20 -8 -35.5t-10.5 -33.5t-10 -18t-8.5 4t-5 8v27zM187 437q-15 0 -23.5 -1.5
t-12.5 -6t-7 -11.5l-5 -18q-1 -1 -3.5 -9.5t-6 -20t-6 -19t-3.5 -9.5t-2 -8t-2.5 -13t-3 -12.5t-1.5 -7.5h51l9 5l2 11q2 11 4 26l4 38q3 16 4 26q0 5 1 16t1 14z" />
    <glyph glyph-name="dollar" unicode="$" horiz-adv-x="276" 
d="M120 189h-21q-15 -1 -30.5 0.5t-27.5 6.5t-12 16q0 6 7 11.5t15 5.5q11 0 19.5 -6t20.5 -6q18 0 25 8.5t8.5 20.5t0 21.5t-1.5 17.5v16q0 6 -1 13v21q-20 5 -36 10t-27.5 12.5t-18 19.5t-6.5 30.5t7 31t19 21t28 15.5t34 15l5 4q1 6 2.5 16t5 16t10 13t18.5 7
q5 0 9.5 -3.5t4.5 -7.5l1 -34l6 -1l14 -4q8 -2 14.5 -3.5t7.5 -2.5q4 -3 8.5 -9t7.5 -13.5t5 -14t2 -9.5q0 -9 -7.5 -13.5t-15.5 -4.5q-2 0 -5 0.5t-5 1.5q-1 4 -2 10t-3.5 12t-7 10.5t-12.5 4.5h-4q-2 -1 -3 -1q-5 -14 -7 -30.5t-2 -30.5q0 -5 2 -9t2 -9t-2.5 -9.5
t-2.5 -9.5q0 -2 13 -5.5t29 -10t29 -18t13 -30.5q0 -23 -8 -32t-20.5 -20.5t-27 -21.5t-27.5 -19q-3 -7 -2.5 -14.5t-1 -16t-7 -17t-20.5 -8.5q-5 0 -11.5 1t-6.5 7v28zM164 259v-5q0 -2 5 -4q18 10 32.5 18.5t14.5 34.5q0 13 -14.5 19t-28.5 9q-11 -16 -10 -39t1 -33z
M71 409q0 -20 11 -30.5t38 -10.5q6 0 7 8q0 2 1 8l2 12q1 7 1.5 12.5t0.5 8t-0.5 8t-1.5 11.5l-2 13q-1 6 -1 8h-2q-9 0 -18.5 -4.5t-17.5 -12t-13 -16t-5 -15.5z" />
    <glyph glyph-name="percent" unicode="%" horiz-adv-x="380" 
d="M164 207q-5 26 -5 34q0 16 16 32t38.5 25.5t47 15t40.5 5.5q20 0 34.5 -10t14.5 -26v-14q0 -4 -4.5 -8t-15 -13.5t-30.5 -38.5q-73 -38 -85.5 -43.5t-24.5 -5.5q-4 0 -12.5 2t-8.5 6zM309 292q-5 0 -22 -3t-35 -11t-32 -14.5t-14 -13.5l5 -52l53 33l25 19q11 9 15.5 20
t4.5 22zM31 167q0 14 8.5 28t27.5 42l146 175h-7l-15 -9q-10 -6 -22 -13t-23 -14l-15 -9q-12 -6 -26 -10.5t-28 -4.5q-4 0 -12 1t-8 7v90q-1 1 -4.5 7t-4.5 7v4l18 15q12 5 26 12.5t30 15t32 12t33 4.5q22 0 32.5 -9t14.5 -22t3.5 -28t0.5 -26q11 7 23 22t23.5 28.5t21 26.5
t12.5 23l19 5q18 -5 16 -12.5t-2 -8.5q0 -8 -5.5 -14t-13.5 -11q-53 -70 -114 -133t-136 -178q-3 -3 -4.5 -9.5t-4 -12.5t-6.5 -11t-12 -5q-24 0 -24 15zM99 460q-4 -18 -5 -37t-1 -37q9 0 19 4.5t19.5 10.5t18 12t14.5 10l18 15q6 4 10 7.5t4 4.5q4 4 4.5 11t0.5 13
q0 11 -3.5 17.5t-17.5 6.5q-21 0 -45 -12t-36 -26zM220 425q-2 0 -2 -1.5t2 -1.5t2 1.5t-2 1.5z" />
    <glyph glyph-name="ampersand" unicode="&#x26;" horiz-adv-x="343" 
d="M147 212q-5 2 -14 -6t-19 -19l-18 -19q-8 -9 -11 -9q-14 0 -24.5 6.5t-17 17t-10 23t-3.5 23.5q0 19 8 32.5t18 24.5t18 22t8 26v5l-9 24q-4 10 -7.5 19.5t-5.5 20t-2 24.5q0 20 7.5 40t21 37t32.5 28t42 11q28 0 42 -15.5t14 -41.5q0 -17 -7 -30t-7 -27q21 0 41 6.5
t41 6.5q9 0 16.5 -5t7.5 -15q0 -5 -0.5 -8.5t-4.5 -7.5q-9 -4 -26 -12t-25 -20l-74 -118q-5 -1 -5 -9v-5l24 -30q5 -7 10 -12.5t13 -5.5q12 0 22 14.5t20.5 32t22.5 32.5t28 15v-19l-51 -92q-13 -23 -40 -23q-21 0 -32 7.5t-18 17t-12 19t-14 14.5zM63 234q0 -14 9 -27l10 5
q2 1 7.5 5t11 9.5t11 9.5t7.5 6v7q0 9 -5 23.5t-16 14.5h-2q-9 -9 -21 -25t-12 -28zM137 326q2 -5 5 -19.5t5 -19.5l2 -1q1 0 2 1q9 6 18 17.5t16 24.5t13 25.5t9 19.5v3q0 10 -8 12.5t-16 2.5h-5l-4 -4l-7 -11q-5 -8 -11 -17.5t-11.5 -17.5t-7.5 -11v-5zM100 408q0 -2 1 -9
t3 -14.5t5 -13t8 -5.5t6 5q3 5 11 18.5t17 29t17 29.5t11 19q5 9 5 18.5t-7 15.5t-18 6q-17 0 -28.5 -11t-18 -27t-9.5 -33t-3 -28z" />
    <glyph glyph-name="quotesingle" unicode="'" horiz-adv-x="162" 
d="M45 518l5 10q4 7 4 9l3 10q3 6 5.5 12.5t4 12t1.5 6.5q2 11 1 21t-0.5 18t5.5 12.5t18 4.5q3 0 9.5 -1t12.5 -3.5t10.5 -6t4.5 -8.5v-32q0 -1 -5 -8t-11.5 -16.5t-14 -19.5t-11.5 -16q-8 -11 -12 -16t-13 -5q-5 0 -11 3.5t-6 10.5v2z" />
    <glyph glyph-name="parenleft" unicode="(" horiz-adv-x="170" 
d="M120 544q8 0 15 -3t7 -13q0 -12 -5.5 -17t-11.5 -14q-29 -38 -43 -81.5t-12 -82.5q2 -69 28 -131l4 -8l8 -12q5 -7 9.5 -13t4.5 -7q0 -7 -7 -7q-14 0 -26 6.5t-20.5 18t-14.5 24.5t-11 24q-2 5 -4 13t-4.5 16.5t-4 14t-1.5 6.5l-4 105l8 34q5 13 9 27t7 23t10 21.5
t17.5 25.5t21.5 21.5t20 8.5z" />
    <glyph glyph-name="parenright" unicode=")" horiz-adv-x="177" 
d="M29 153q-1 1 0.5 3.5t1.5 5.5q3 4 8.5 12.5t12.5 18.5t13 18t7 12q1 1 5 10.5t9.5 23.5t11 27.5t10.5 30t4 23.5t-0.5 12t0.5 6l-29 98q-4 13 -12 23t-16.5 21t-17.5 22t-11 26q22 4 40 -7.5t32 -29.5t24.5 -39t12.5 -35l6 -20l7.5 -21t3.5 -19.5t1 -22.5q1 -16 -9.5 -46
t-29 -64t-39.5 -61t-38 -30q-6 -2 -8 2z" />
    <glyph glyph-name="asterisk" unicode="*" horiz-adv-x="332" 
d="M146 234l-1 6q0 3 1 4q0 6 1 19.5t2 29.5t1 30l2 20q-1 4 -9 4h-1q0 -1 -1 -1h-2l-12 -14q-20 -30 -25 -39t-9 -13t-12.5 -12t-10.5 -9q-28 1 -33.5 3t-5.5 7l-2 33q0 6 7 10t20 8h10l56 72v4q-1 8 -6.5 14t-9.5 13q-1 1 -4.5 6.5t-7.5 11.5l-6 11q-3 5 -4 6q-6 9 -14 11
l-14 5q-6 3 -11 8t-6 19q-1 11 6 20.5t19 10.5q16 1 25.5 -8t17 -21.5t14.5 -25.5t19 -19l3 9l-3 115q0 6 4.5 10t10.5 6.5t12.5 4t10.5 1.5q14 1 22.5 -10.5t10.5 -25.5v-4l-22 -38l5 -50q8 6 20 18.5l24 25t23.5 21.5t17.5 10q10 1 19 -4.5t9 -16.5q2 -9 -0.5 -13.5
t-7 -8.5t-10.5 -7.5t-11 -9.5t-16 -17.5t-24 -25t-24 -25.5l-15 -17q-3 -5 -3 -12v-2l10 -13q9 -8 17 -18t16.5 -18t11.5 -12q13 -14 27 -28.5t14 -34.5q0 -2 0.5 -12.5t-3.5 -10.5l-32 -2q-6 0 -10.5 12t-5.5 14q-8 12 -20 26t-25 23q-4 -5 -3.5 -22.5t0.5 -36t-2 -34
t-11 -16.5q-11 0 -22 6t-12 19z" />
    <glyph glyph-name="plus" unicode="+" horiz-adv-x="384" 
d="M147 204q10 92 10 133q-18 0 -35.5 -4t-35.5 -4q-6 0 -15.5 4t-9.5 12q0 10 3.5 19.5t14.5 11.5l79 14l5 4q0 9 2.5 30t7.5 42t12.5 37.5t18 16.5t20 -5.5t9.5 -16.5t-4 -21t-9 -20l-8 -22q-4 -11 -4 -23v-8q0 -3 1 -5l19 -5q3 1 11.5 2t18.5 2.5t18.5 3t11.5 2.5h5
q11 0 17.5 -9t6.5 -19q0 -7 -2.5 -12.5t-12.5 -6.5q-3 0 -10 1h-31q-7 -1 -10 -1t-15.5 -1.5t-17.5 -2.5q-12 -3 -17.5 -12t-7.5 -20.5t-3 -57.5t-1 -49q0 -5 -0.5 -12t-2 -14t-6 -11.5t-12.5 -4.5q-13 0 -17 11t-4 21z" />
    <glyph glyph-name="comma" unicode="," horiz-adv-x="147" 
d="M43 102v10q1 7 1 15t-1 16v10q0 1 -2 8.5t-2 9.5v3q0 12 11 18.5t21 6.5q17 0 27 -11.5t10 -28.5q0 -6 -5.5 -17.5t-13 -22.5t-16.5 -19t-16 -8q-9 0 -14 10z" />
    <glyph glyph-name="hyphen" unicode="-" horiz-adv-x="366" 
d="M56 346q0 11 11.5 19t29 13t38 7.5t38.5 4t31 2.5h15q2 0 10 0.5t17.5 1.5t17.5 2t10 1h6q11 0 19 -6t8 -18q0 -8 -6 -15.5t-13 -11.5q-46 5 -96.5 -3.5t-93.5 -20.5h-9q-11 0 -22 5t-11 19z" />
    <glyph glyph-name="period" unicode="." horiz-adv-x="118" 
d="M26 169q0 12 8.5 21t20.5 9q14 0 23 -6t9 -22q0 -14 -11 -21.5t-24 -7.5q-2 0 -8 1h-8q-7 4 -8.5 12t-1.5 14z" />
    <glyph glyph-name="slash" unicode="/" horiz-adv-x="229" 
d="M33 183q0 35 8.5 69t21 67.5t27.5 66t25.5 61t17 48t8.5 24.5q3 8 8.5 18t16.5 10q9 0 17 -1.5t18 -3.5q5 -7 5 -12v-2q-23 -35 -43 -82t-40.5 -94.5t-33.5 -101.5q0 -2 -1.5 -11.5t-3 -20.5t-3 -20.5t-1.5 -11.5q-2 -12 -6 -22.5t-17.5 -10.5t-18.5 9.5t-5 20.5z" />
    <glyph glyph-name="zero" unicode="0" horiz-adv-x="258" 
d="M32 336l7 88l43 90q6 14 17 21t22 12q19 5 35 -3t31 -24.5t25 -37t15 -39.5q6 -36 0.5 -64.5t-14.5 -61.5q-3 -6 -10.5 -20.5t-17.5 -32t-19 -33.5t-12 -20q-7 -15 -24 -33t-32.5 -23t-26 2.5t-17.5 29.5zM129 499q-20 -7 -29.5 -42.5t-16 -82t0 -86t10.5 -52.5l3 -18
q17 12 36 36t33 50.5t21 62.5t1 63q-1 10 -7.5 23.5t-14 24t-17 17t-20.5 4.5z" />
    <glyph glyph-name="one" unicode="1" horiz-adv-x="203" 
d="M47 185l4 12q3 8 6 18t5 19l4 66q0 1 1.5 13t5 58t5.5 62.5t3 27.5q1 9 2.5 23.5t6 29t12 25t21.5 10.5t19 -5t5 -19q0 -2 -1 -7v-6l-5 -19q-3 -15 -6.5 -32t-8 -61.5t-5.5 -48.5q-2 -12 -3 -36t-4 -75.5t-10 -69.5t-20 -18t-24 10.5t-13 22.5z" />
    <glyph glyph-name="two" unicode="2" horiz-adv-x="260" 
d="M99 163q-8 -3 -12 -6t-12 -4q-10 -1 -23.5 4t-21.5 23q0 2 1.5 9.5t4.5 12.5l102 205l14 53l-10 13l-41 -7q-41 -7 -48 6t-7 18q-3 15 3.5 24.5t15.5 14t36 16.5l17 1q32 4 57.5 -21.5t30.5 -71.5l1 -9l-104 -207l1 -7q0 -1 8 -2l12 -4q5 1 16.5 1t24.5 0.5t24.5 1
t16.5 0.5q9 -5 11.5 -17.5t3.5 -22.5q2 -14 -5.5 -24t-15.5 -11l-6 -1q-6 1 -19 3l-57 6q-13 3 -19 3z" />
    <glyph glyph-name="three" unicode="3" horiz-adv-x="273" 
d="M63 182q0 12 4.5 20t10.5 14l14 11q8 5 12.5 11.5t14.5 20t21.5 29t20.5 29.5l14 18l3 9t2 9t-2 4.5t-3 1.5h-93q-8 0 -11 8.5t-3 16.5q0 12 12 23t27 22t27 24.5t12 41.5h-78q-8 0 -13.5 11t-5.5 19q0 11 8.5 17.5t15.5 6.5h93q4 0 10.5 -5t12.5 -12t10 -15t4 -15.5
t-2.5 -12.5t-7.5 -22l-7 -9q-5 -8 -11 -15.5t-12 -13.5l-7 -9q6 -4 18 -7.5t23.5 -10t20 -17t8.5 -26.5q0 -13 -4 -22.5t-10 -18t-12.5 -18t-10.5 -19.5l-98 -120q0 -1 -3.5 -3t-5.5 -3h-2q-9 0 -13 8t-4 19z" />
    <glyph glyph-name="four" unicode="4" horiz-adv-x="273" 
d="M132 172q0 37 6 74.5t6 74.5q-17 0 -33.5 -5.5t-34.5 -5.5q-8 0 -16.5 0.5t-15 4.5t-11 10t-4.5 18q0 14 5 28.5t11 27.5l14 25q7 23 12 34q2 4 6.5 15.5t8 22.5t7.5 24l6 17q1 6 7 6h9q22 0 22 -25q0 -1 -1 -2v-5l-61 -146v-3q4 0 11.5 -1.5t11 -1.5t10 2t13.5 3.5
t13.5 3t9.5 2.5q11 16 14.5 39.5t4.5 52.5q0 4 1 13.5t1 21.5l2 22q1 9 1 12q2 4 8 10.5t10 6.5t14.5 -1.5t13.5 -3.5v-5q1 -4 1 -6.5t-1 -5.5v-4q-5 -34 -9 -70t-4 -70q5 0 10 2.5t10 2.5q9 0 15 -9.5t6 -18.5q0 -16 -8 -19.5t-19 -1.5h-19q-9 0 -10 -10l-17 -161
q-1 -6 -9.5 -11t-13.5 -5q-8 0 -11 6.5t-3 14.5z" />
    <glyph glyph-name="five" unicode="5" horiz-adv-x="236" 
d="M60 172q0 14 4 23.5t9.5 15t13.5 11t16 13t18.5 20.5t20 26.5t16 30t6.5 30.5q0 1 -1 5v5q-15 2 -24.5 3.5t-21.5 1.5q-18 0 -28.5 -4t-32.5 -14q-15 2 -23 10t-8 26q0 13 3 26t3 27q0 11 -3 17.5t-3 17.5v11q1 2 5.5 9t5.5 9v11q1 9 1.5 17.5t1.5 16t1 9.5q11 0 17.5 -5
t10.5 -10t6.5 -9.5t6.5 -4.5q20 0 39.5 9.5t40.5 9.5q17 0 33 -13v-6q1 -7 1 -9q0 -23 -18 -26.5t-40.5 -7.5t-42 -18t-22.5 -55h3q3 -2 4 -2q14 0 26 3.5t25 3.5h29q14 -1 25.5 -6t18.5 -16t7 -32q0 -3 -1 -12v-13q-22 -54 -49 -93t-63 -80h-12q-9 0 -17 2.5t-8 15.5z" />
    <glyph glyph-name="six" unicode="6" horiz-adv-x="255" 
d="M25 217q0 7 3 16l6 14q3 8 5 14.5t0 12.5l57 218q2 8 2 17v18q1 9 4.5 15t11.5 6q14 0 23.5 -12.5t9.5 -30t-5 -31.5t-11.5 -28t-12 -36t-5.5 -41v-10q19 0 39 12t40 16q16 1 24.5 -20t8.5 -37q0 -18 -2.5 -41t-16.5 -38q-5 -4 -18.5 -15.5t-28 -25.5t-28 -25.5
t-18.5 -15.5q-27 -19 -58 -19q-11 0 -17 6t-9 16t-4 22v23zM97 303q-4 0 -7.5 -12.5t-6.5 -28.5t-5 -30.5t-2 -19.5q18 0 37.5 9t35 24t26 36t12.5 43q-1 6 -5 6h-6q-11 0 -20 -4l-16 -12q-7 -7 -14 -12.5t-13 -5.5q-1 0 -6.5 3t-7.5 4h-2z" />
    <glyph glyph-name="seven" unicode="7" horiz-adv-x="244" 
d="M143 497h-103q-8 0 -9 7t-1 16q0 6 1 11.5t9 7.5q35 7 73.5 8t73.5 1q2 0 6.5 -2.5t8.5 -6.5t6.5 -7.5t1.5 -6.5l-19 -37l-59 -296q2 -16 -0.5 -29t-20.5 -13q-7 0 -12 0.5t-9.5 2.5t-7 5.5t-0.5 10.5z" />
    <glyph glyph-name="eight" unicode="8" horiz-adv-x="326" 
d="M53 264q0 21 9.5 38.5t23 32.5t27.5 27.5t23 26.5q-11 16 -14.5 32t-3.5 36t3.5 32.5t10 20.5t17 15.5t24.5 16.5q8 5 11 6h10q22 0 35.5 -8.5t21 -24t9.5 -37t2 -49.5q0 -11 -5 -16t-5 -13t4.5 -14t9.5 -12t9.5 -14t4.5 -18v-13q0 -4 -5 -10l-18 -37q-10 -19 -21 -39.5
t-23.5 -38.5t-25.5 -32l-9 -10.5t-5.5 -6t-5.5 -2.5h-9q-11 0 -28.5 9.5t-34.5 26.5t-29.5 37t-12.5 38zM90 264q1 -3 2.5 -7t2.5 -4l51 -45h14q10 13 17 20.5t13.5 18t10.5 17.5l7 12q5 10 10 20.5t9 20.5l7 12v10q0 19 -14.5 24t-25 5t-28 -10.5t-34.5 -26.5t-29.5 -33.5
t-12.5 -29.5v-4zM164 457q0 -26 19 -26q12 0 22.5 16.5t10.5 31.5q0 12 -6 13.5t-14 1.5q-32 0 -32 -37z" />
    <glyph glyph-name="nine" unicode="9" horiz-adv-x="240" 
d="M66 187q2 4 7 15.5t10 24.5t9 26l19 49q3 7 6 21l8 26q4 12 6.5 22t2.5 11v6q-14 0 -28 -7.5t-30 -7.5q-45 0 -45 51q0 21 9 43.5t24 40t33.5 29t38.5 11.5q12 0 26 -6.5t25 -17.5t18.5 -25.5t7.5 -28t-5.5 -27t-13.5 -24.5q-4 -9 -13 -36t-20 -55l-31 -90
q-9 -26 -13 -36q-3 -8 -5 -17t-5.5 -17t-9.5 -13t-15 -5h-11q-5 6 -5 13v24zM73 427q0 -13 9 -13t23 5t28 13.5t24 18.5t10 19q0 12 -8.5 22t-19.5 10q-26 0 -46 -23t-20 -52z" />
    <glyph glyph-name="colon" unicode=":" horiz-adv-x="172" 
d="M45 238q0 15 11.5 23.5t26 8.5t19.5 -11.5t5 -23t-7.5 -21t-18.5 -9.5q-15 0 -25.5 9t-10.5 24zM55 363q0 14 10 23.5t25 9.5q11 0 19 -7.5t6 -21.5q-1 -10 -11 -21t-21 -11q-28 0 -28 28z" />
    <glyph glyph-name="semicolon" unicode=";" horiz-adv-x="252" 
d="M79 194q0 7 4 13l10 12q6 5 11.5 10.5t7.5 13.5q1 6 1 13.5t1.5 13.5t6 10.5t14.5 4.5q14 0 26 -11t12 -25.5t-6.5 -24t-16.5 -16.5t-23 -13l-24 -12h-5q-5 0 -12 3t-7 8zM107 371q0 11 7 18.5t19 7.5q30 0 30 -30q0 -8 -9.5 -15t-17.5 -7q-12 0 -20.5 6t-8.5 20z" />
    <glyph glyph-name="less" unicode="&#x3c;" horiz-adv-x="250" 
d="M30 332q3 2 9.5 8.5l14 14l14 14t8.5 9.5q6 6 7.5 10t6.5 9l54 81q5 8 15.5 15.5t21.5 7.5t15 -6t4 -16v-12q0 -7 -5 -12l-18 -22q-12 -16 -22.5 -26t-23.5 -26l-18 -22q-4 -5 -11 -11t-7 -14v-2q1 -2 4.5 -7.5t4.5 -6.5q3 -3 11 -10l17 -17l19 -17q9 -8 14 -12.5
t14.5 -7.5t18.5 -7t16 -8.5t7 -12t-3.5 -16t-11.5 -13.5h-30q-6 0 -11 5l-14 14q-5 4 -9 9l-5 5l-14 10.5l-22 16.5t-23 17t-16 11q-12 9 -22 14.5t-10 22.5v10z" />
    <glyph glyph-name="equal" unicode="=" horiz-adv-x="302" 
d="M29 268q0 10 2.5 11.5t16.5 5.5l30 7q14 2 27 3t26 1h59q8 -1 14 -1.5t7 -0.5l46 -13q8 -2 9 -7.5t1 -10.5v-8q0 -7 -5 -7h-177q-8 -7 -14.5 -8.5t-15.5 -1.5q-14 0 -20 8.5t-6 21.5zM52 368q0 10 14 16t32 9t35 4h24q27 0 49.5 -2t45.5 -12q4 -2 4.5 -4t0.5 -6
q0 -16 -19 -23q-6 0 -20 1h-62q-14 -1 -20 -1h-5q-4 -1 -8.5 -2l-9 -2t-5.5 -1h-4q-6 0 -14.5 0.5t-17 3t-14.5 7t-6 12.5z" />
    <glyph glyph-name="greater" unicode="&#x3e;" horiz-adv-x="284" 
d="M35 220v9q1 5 5 7l118 103l37 37v3q1 0 1 1q0 6 -6.5 12.5t-14.5 11.5t-15.5 8.5t-10.5 4.5q-5 3 -19 9l-28 13l-28 12q-13 6 -18 8q-13 6 -18 17.5t-5 24.5h32l158 -74q4 -5 10.5 -9.5t12.5 -9.5t10.5 -11t4.5 -12.5t-14 -20.5t-32 -28t-34.5 -25.5t-22.5 -13.5l-72 -65
q-6 -4 -7 -9t-2.5 -9t-5 -7t-13.5 -3q-8 0 -15.5 3t-7.5 13z" />
    <glyph glyph-name="question" unicode="?" horiz-adv-x="315" 
d="M119 187q0 14 11 23t22 9q14 0 19 -11.5t5 -23.5q0 -6 -1 -12v-8q-8 -10 -13 -12t-13 -2q-11 0 -20.5 10.5t-9.5 26.5zM133 317q0 19 12.5 35.5t27 34t27 36t12.5 41.5q0 12 -6.5 19t-15.5 11.5t-18.5 5.5t-15.5 1q-20 0 -31.5 -11t-17.5 -27.5t-7 -36t0 -38.5
q-1 -5 -9.5 -5t-15 6.5t-10 16t-5.5 20.5t-2 18q0 18 7.5 36t19 32t25.5 24t28 11t34 -2t38 -12t31 -25t13 -40q0 -12 -11.5 -40t-27.5 -57.5t-33 -51t-28 -21.5q-9 0 -15 4t-6 15z" />
    <glyph glyph-name="at" unicode="@" horiz-adv-x="350" 
d="M37 331q0 4 1 8l37 113q7 20 22 36t34.5 27.5t40.5 18t40 6.5q45 0 72.5 -31t27.5 -76q0 -52 -21.5 -95t-57.5 -76q-1 -1 -4 -2.5t-5 -3.5h-3q-10 0 -19 7t-16 13q-11 -10 -20 -12.5t-22 -2.5q-21 0 -33.5 19.5t-12.5 40.5q0 16 6 32.5t17 29.5t25 21.5t31 8.5
q10 0 20 -5.5t19.5 -12t17.5 -14.5t13 -12v-8q0 -9 -2 -15.5t-7 -15.5q11 4 19 17t13 29.5t7.5 33t2.5 27.5q0 29 -17.5 42t-43.5 13q-34 0 -59.5 -18t-42 -46.5t-25 -62t-8.5 -64.5q0 -46 29 -70t72 -24q2 0 6 1h5l111 59v-20q0 -1 -3.5 -5t-9 -10t-11.5 -11l-8 -9
q-4 -3 -13.5 -9.5t-21 -14.5t-21.5 -15t-14 -9q-8 -5 -15 -5h-15q-31 0 -56.5 13.5t-43.5 36t-28 51.5t-10 59v12zM144 319q0 -9 10.5 -9t19 12.5t8.5 24.5q0 4 -1 8t-6 4q-11 0 -21 -14t-10 -26z" />
    <glyph glyph-name="A" unicode="A" horiz-adv-x="310" 
d="M18 184v5q0 2 1 5q4 9 12 35.5t18 50.5t20.5 51t20.5 52t18 45.5t12 29.5q1 2 3 9.5t3 9.5q1 4 5 13l8 20q5 8 8.5 17t5.5 11q9 8 15.5 8t10.5 -6.5t5.5 -16.5t6.5 -31l52 -156q6 -12 12.5 -29t15.5 -37t16 -44t7 -35.5t-1.5 -26t-14.5 -14.5t-21 11t-13.5 27.5t-9 37.5
t-8.5 30q-20 3 -34.5 4t-34.5 1q-36 0 -57.5 -15t-32.5 -40t-14.5 -40.5t-8.5 -15.5q-13 0 -19.5 11t-6.5 23zM160 440q-6 -3 -8 -9l-4 -11q-6 -12 -11 -29l-12 -38q-8 -22 -16 -42v-8q22 0 48 5.5t48 7.5q-7 31 -19 64.5t-26 59.5z" />
    <glyph glyph-name="B" unicode="B" horiz-adv-x="281" 
d="M32 197q0 15 1 37t3.5 49t6.5 49.5t11 38.5v100q-7 0 -13 -1.5t-10 0t-7 5.5t-3 15q0 19 15.5 28.5t29.5 14.5l11 4q10 1 19 4l17 2q8 1 11 1h27q16 0 32 -4t27.5 -15t11.5 -31.5t-6 -35t-16 -39.5q5 -12 15 -17t19.5 -8.5t17 -10.5t7.5 -25q0 -23 -6 -39.5t-16 -38.5
q-17 -26 -35.5 -46t-39 -36.5t-44 -28.5t-48.5 -16q-22 -4 -30 10.5t-8 33.5zM92 328q-7 -7 -9.5 -22t-3.5 -35t-0.5 -35.5t0.5 -24.5q19 0 42.5 12.5t44.5 34.5t35.5 44t14.5 42q0 16 -12 19t-23 3q-23 0 -46 -14t-43 -24zM109 439q0 -14 -4 -22t-4 -19q10 0 22.5 8
t23.5 22t18.5 27t7.5 23q0 7 -5.5 11.5t-12.5 5.5t-15 1h-31q-3 -1 -7 -4.5t-4.5 -6.5t0.5 -10l4 -13q2 -6 4.5 -13t2.5 -10z" />
    <glyph glyph-name="C" unicode="C" horiz-adv-x="261" 
d="M26 324q0 27 5.5 50t12.5 41q2 3 7.5 10t10.5 16t9 18.5t7 16.5q12 13 24.5 21.5t26.5 15.5t29.5 12t27.5 10q9 6 12 7.5t4 2.5t3 1l10 -1q14 -1 16 -10t2 -27q0 -14 -9 -21.5t-22 -11t-26 -4t-20 -0.5q-13 -2 -25.5 -16.5t-25.5 -33.5t-22 -39t-9 -38t2 -37.5t10 -43
t18 -37t26 -13.5q2 0 7.5 0.5t6.5 1.5l88 36l-1 -22q0 -1 -4 -5.5t-9.5 -10t-10.5 -9.5l-8 -7q-18 -15 -42 -27t-50 -12q-21 3 -36 19.5t-25.5 39.5t-17 55t-2.5 52z" />
    <glyph glyph-name="D" unicode="D" horiz-adv-x="324" 
d="M25 182v12q1 6 5 14q32 -4 46.5 0.5t20.5 18t6 38.5v142q0 28 -6 59l-24 -5q-15 -6 -22 -9h-3q-15 0 -19 12.5t-4 29.5t9.5 28t22.5 16t27 9h23q17 0 35 -4l40 -4q21 -5 39.5 -8.5t34.5 -6.5q25 -19 35.5 -41t10.5 -64v-22q0 -11 -6 -25q-3 -3 -10 -32l-17 -26
q-9 -13 -17 -26t-12 -17q-11 -14 -26 -25l-29 -25q-14 -15 -26.5 -30t-22.5 -32q-24 -8 -44.5 -8.5t-43.5 7.5t-23 24zM153 255q11 0 27.5 18t32 41.5t26.5 56t11 50.5t-10 27.5t-23 13.5t-27 4h-37v-211z" />
    <glyph glyph-name="E" unicode="E" horiz-adv-x="273" 
d="M33 199l7 12q4 8 5 11q3 12 4 52.5t1 58.5v78q0 13 -1 26v38q-3 4 -8 9l-12 6q-4 5 -7 9t-3 12q0 14 25.5 22t59 10.5t64.5 3.5h42q16 0 25 -7t9 -24q0 -5 -1.5 -13t-9.5 -8h-132l-1 -8q-1 -8 -2 -18t-2 -14.5t-1 -11.5v-38q6 -1 20 -3.5t29 -4t29 -2.5t20 -2h9q3 1 11 3
t10 2q9 -2 12.5 -14t3.5 -20t-4.5 -14.5t-13.5 -6.5q-22 0 -44.5 5t-44.5 5q-26 0 -34 -8.5t-8 -95.5v-15q1 -7 10 -7q35 0 70 9t70 9q11 0 12.5 -8.5t1.5 -18.5q0 -7 -2 -13.5t-8 -11.5q-5 0 -20 -2t-31 -3.5t-31 -3.5t-20 -2h-15l-17 -5q-11 -3 -15 -6q1 -4 0.5 -10.5
t-2.5 -11t-6.5 -8t-13.5 -2t-16.5 6.5t-12 11.5t-8.5 19t-3 22.5z" />
    <glyph glyph-name="F" unicode="F" horiz-adv-x="248" 
d="M34 167v46q1 36 1 96t-1 94v46q0 2 -0.5 14t-1.5 25l-3 24v22q0 4 24 4.5t52.5 6t52 9.5t36.5 4q9 0 18.5 -5t9.5 -19q0 -9 -11 -22.5t-26.5 -15.5t-32 -1t-32 -2t-25.5 -13t-9 -20q0 -6 2 -16t1 -19.5t0.5 -16.5t2.5 -7h121q8 0 9 -8.5t1 -15.5q0 -4 -2 -17.5t-8 -13.5
h-126l-6 -174q0 -14 -7 -19.5t-17 -5.5q-20 0 -23 20z" />
    <glyph glyph-name="G" unicode="G" horiz-adv-x="304" 
d="M193 169q-15 0 -27 -7t-27 -7q-62 0 -87.5 47t-25.5 145q0 62 21.5 105t60.5 66l46 19q2 0 12.5 1.5t12.5 3.5q4 2 4.5 9t2 11.5t11 4.5t19 -4t16.5 -17.5t10.5 -28.5t3.5 -25q0 -28 -22 -28h-5q-2 0 -3 1.5t-5.5 5t-10 6t-10 5.5t-5.5 3q-20 5 -40.5 -6t-37 -31
t-26.5 -46t-10 -49q0 -17 3 -37.5t10.5 -50t19.5 -41.5t30 -12q9 0 21 3.5t23.5 10.5t19.5 17.5t8 50.5l-2 5q-6 2 -15.5 4t-18.5 5.5t-15 11.5t-6 19.5t3.5 20.5t14 9t20.5 -3t21 -3q15 0 28.5 6.5t27.5 6.5q11 0 17 -12t6 -24t-4.5 -17t-9 -8.5t-10 -6t-7.5 -9.5
q-6 -52 -6 -83.5t1 -45.5q-2 -9 -7 -18t-13 -9q-15 0 -23.5 6t-12.5 19z" />
    <glyph glyph-name="H" unicode="H" horiz-adv-x="271" 
d="M182 175q0 5 -1.5 17t-2.5 25.5t-1 25.5v16v4q1 37 1.5 54.5t-0.5 33.5q-4 0 -11.5 1t-18.5 1.5t-21 0.5h-12q-9 -1 -22 -5.5t-13 -6.5l3 -169q0 -13 -6 -16t-13 -3q-12 0 -22.5 7.5t-10.5 22.5q0 5 2.5 17.5t3.5 15.5q-1 10 -3 73l-3 108v82v12q1 8 1 19l2 18q1 9 2 13
q4 4 8 5h9q9 0 15 -6.5t8 -16.5v-12v-43q3 -20 3 -38.5t1.5 -24.5t2.5 -7l77 1q6 0 14.5 2t8.5 3l4 120q0 1 6 8t9 9q8 7 21 10t14 3l11 -5v-19q-1 -2 -2.5 -8.5t-1.5 -7.5q-1 -8 -3.5 -25.5t-4.5 -46t-1 -46t0 -24.5q-2 -34 -5 -73t0.5 -67.5t3.5 -56.5q0 -8 -9 -18
t-17 -10.5t-16 10t-10 17.5z" />
    <glyph glyph-name="I" unicode="I" horiz-adv-x="184" 
d="M27 176q0 10 5 13t12 3.5t13 2t8 7.5q10 35 12.5 79t2.5 166v10q0 7 -1 15v24q-6 4 -13 5t-12.5 3t-9 6t-3.5 14q0 6 1 12.5t9 8.5q20 2 39.5 2.5t39.5 0.5q11 0 19.5 -7t8.5 -18q0 -7 -4 -11.5t-8.5 -8.5t-9.5 -8t-6 -11l-3 -15q-2 -11 -2 -13v-147q0 -3 -1.5 -14
t-3 -23.5t-3 -23.5t-1.5 -14v-5q0 -11 8 -17t16.5 -11t14.5 -11t3 -16q0 -1 -3 -6.5t-6.5 -9t-7 -6t-6.5 -2.5h-93q-9 0 -12 10t-3 16z" />
    <glyph glyph-name="J" unicode="J" horiz-adv-x="185" 
d="M18 182q0 9 6 11q26 2 32.5 5t13 11t8 22t10.5 38v231q-7 0 -14 -0.5t-13.5 0t-10.5 6.5t-4 16.5t10.5 16.5t24.5 8t22 0t17 0q2 0 10.5 2.5t9.5 3t3 0.5h5q9 0 16 -6.5t7 -18.5q0 -10 -11.5 -18t-24.5 -14v-32q1 -34 1 -66.5t-1 -55.5v-35q-2 -35 -6 -64t-11 -50
t-27.5 -32t-44.5 -11q-13 0 -20.5 6.5t-7.5 25.5z" />
    <glyph glyph-name="K" unicode="K" horiz-adv-x="250" 
d="M31 185q11 95 9.5 171.5t-7.5 164.5q3 11 11.5 18.5t19.5 8.5q13 0 17 -9.5t6 -21.5q0 -23 -1.5 -48t-1.5 -48h4q1 0 10 12l25 34q1 1 4 8t7.5 15.5t8.5 15t5 8.5q6 9 10.5 17.5t15.5 8.5q6 1 16 -4t10 -13t-4.5 -16t-10.5 -16t-11.5 -15t-9 -13.5t-10 -16.5t-19 -25.5
t-18 -26.5t-8.5 -14v-2q0 -4 1.5 -6.5t3.5 -5.5q4 -8 16 -26l26 -39t27.5 -44t18.5 -37q16 -9 20.5 -16.5t4.5 -24.5q0 -9 -13 -26q-22 -2 -26 0.5t-6 7t-4 8.5t-7 7l-11 20q-8 13 -18 32t-20.5 37t-15.5 24l-2 4q-2 5 -2 6l-14 15q-9 -16 -7 -36l2 -55q3 -21 -1 -40.5
t-26 -32.5q-11 4 -18 12t-7 20v3z" />
    <glyph glyph-name="L" unicode="L" horiz-adv-x="229" 
d="M29 188q0 63 5 188l3 136q2 17 8 26t23 9q5 0 9.5 -7.5t6.5 -13.5v-31q0 -45 -2 -116.5t-2 -113.5v-53l14 -6l101 -3q6 0 10 -6.5t4 -11.5q0 -10 -6 -17.5t-12 -13.5q-5 0 -16 1l-39 1q-19 -2 -29.5 -1.5t-23.5 -1t-31 -1.5q-16 0 -19.5 10t-3.5 26z" />
    <glyph glyph-name="M" unicode="M" horiz-adv-x="360" 
d="M250 452q-5 -5 -9 -17q-2 -9 -6 -28t-8.5 -41.5t-9 -42.5t-6.5 -26q-8 -32 -20.5 -32.5t-14.5 0.5q-5 10 -11 31.5t-8 26.5q-13 47 -21 70.5t-26 52.5q-9 -3 -10.5 -37t-10 -114t-15.5 -113t-27 -33q-12 0 -15.5 12t-3.5 22l-1 12q18 132 27 200.5t11 136.5q2 16 17 16
q20 0 34 -12t24.5 -30t28.5 -70l19 -47l29 102l27 51l20 7q12 0 19.5 -7.5t12 -18.5t6 -24t2.5 -25q8 -70 18 -143.5t10 -144.5q0 -16 -5.5 -27t-20.5 -10q-12 0 -18 16t-8 35.5t-1 41.5v28q-2 47 -10 92.5t-19 89.5z" />
    <glyph glyph-name="N" unicode="N" horiz-adv-x="268" 
d="M27 228q0 59 1.5 99.5t7.5 142.5l2 27q1 12 4 23t10 18t19 7q16 0 27.5 -18t17.5 -32l69 -187l6 -7q0 6 1 14t1 18l-1 25q1 9 1 12v146q0 9 6 18t13 11q5 4 13.5 -0.5t11.5 -11.5q2 -44 4 -64t2 -59q0 -8 -1.5 -27t-1 -47t-1.5 -56t-4.5 -52t-4.5 -41t-4 -21
q-5 -10 -11.5 -12t-14.5 -2q-16 0 -24.5 13t-14 32.5t-10.5 40t-9.5 34t-11.5 36t-17 51t-15.5 44.5t-5.5 17l-7 6q-2 0 -3.5 -14t-3 -35t-0.5 -57l-1 -53q-1 -23 -2 -39v-22q0 -12 2.5 -15t2.5 -8q0 -15 -12 -23t-21.5 -8t-13 7t-6.5 18v51z" />
    <glyph glyph-name="O" unicode="O" horiz-adv-x="300" 
d="M68 161q-18 15 -25.5 46t-15.5 59q0 43 1.5 80.5t17.5 80.5q11 53 32.5 82.5t67.5 36.5q20 2 41 -8t41 -30.5t28 -48t12 -59.5t-1.5 -61t-12.5 -58.5t-21.5 -55.5t-29.5 -45q-14 -17 -24 -22.5t-26 -7.5q-21 -2 -38 0t-47 11zM71 285q8 -43 24 -62.5t52 -13.5
q17 2 34.5 24t26 48.5t14.5 57t1 54.5q-3 18 -6.5 37t-14 34t-25.5 23.5t-29 6.5q-16 -2 -32.5 -28t-25 -61.5t-14 -67.5t-5.5 -52z" />
    <glyph glyph-name="P" unicode="P" horiz-adv-x="262" 
d="M53 188q0 13 1 21.5t9 18.5l2 85q3 45 2.5 57.5t-0.5 32.5q0 3 -1 15t-2 30t-3 30t-4 12l-24 -1q-2 0 -8.5 8.5t-6.5 14t4.5 14t9.5 11.5q15 8 31.5 10t40.5 2q16 2 38 -1.5t42.5 -12t36 -24t19.5 -39.5q3 -35 -10 -54t-34 -34t-43 -27.5t-37 -20.5q-5 -12 -6.5 -30
t-2.5 -47l1 -53q1 -14 1 -21q-4 -12 -9 -22t-17 -10q-16 0 -23 10t-7 25zM120 492q-10 -2 -10 -8l1 -102q8 1 20 8t23 17t18.5 21t7.5 30q0 22 -18 28t-42 6z" />
    <glyph glyph-name="Q" unicode="Q" horiz-adv-x="295" 
d="M176 194q-15 -11 -31.5 -25t-36.5 -14q-36 -4 -57 14t-25 58q0 27 1.5 55t4.5 65q3 35 7 53.5t8 33.5l4 23q1 0 3 4.5t3 6.5l24 32q8 14 19.5 23t25 15.5t32.5 8.5q11 0 23.5 -1t24.5 -6t21 -13.5t13 -22.5q0 -3 -1 -4v-3q0 -15 1.5 -36.5t3 -44t-0.5 -48.5t-2 -41
q0 -2 -3.5 -10t-7 -18.5t-4 -17.5t-0.5 -12q-5 -24 4.5 -35.5t20.5 -19.5t20.5 -14.5t10.5 -21.5q3 -11 -5 -18.5t-18 -8.5q-25 0 -46 11.5t-37 31.5zM77 262q0 -15 1 -23.5t10 -21.5q-1 4 0 15.5t1 13.5l-4 35q1 11 7 25.5t14 25.5t19.5 19t22.5 6q1 0 7 -2.5l12 -5
t11.5 -6t8.5 -3.5h4q4 20 4 43l-8 83q-6 8 -9 11.5t-11 3.5q-28 -2 -46.5 -27t-29 -61.5t-14.5 -72t0 -58.5zM125 244q1 -3 2.5 -6.5t3.5 -5.5q8 3 19.5 15.5t11.5 22.5v1l-8 11q-6 9 -7 11h-3q-15 -2 -17 -18t-2 -29v-2z" />
    <glyph glyph-name="R" unicode="R" horiz-adv-x="271" 
d="M32 187q0 2 1.5 9t3.5 15t2 14.5v8.5q0 4 1.5 14t1.5 25.5t1.5 29t1.5 19.5q-2 13 -2 44t3.5 71t12 69t25.5 39l21 2q19 0 38 -4.5t33.5 -16.5t25 -28t10.5 -37q3 -18 -5.5 -39.5t-20 -32.5t-28.5 -20.5t-33 -14.5v-5q0 -7 5 -14q6 -5 12 -13l14 -16q7 -9 19 -34
q22 -34 29.5 -43.5t11.5 -11.5q9 -7 16 -9.5t11 -4.5t6 -6t2 -14q-3 -23 -11 -31t-27.5 4t-29.5 30.5t-28 44.5q-3 3 -12 15t-22 30.5t-20 26.5l-10 12l-4 -6l-2 -11q-1 -11 -1 -26t-1.5 -27.5t-0.5 -22.5l1 -16q1 -12 -1.5 -24t-6.5 -21t-16 -9.5t-19.5 6.5t-7.5 17v12z
M106 496q-9 -20 -14 -54.5t-2 -56.5q9 1 22.5 4t27 15.5t23.5 27.5t8 27q0 23 -14.5 33t-35.5 9h-8q-6 0 -7 -5z" />
    <glyph glyph-name="S" unicode="S" horiz-adv-x="254" 
d="M19 181q0 14 8 22t19 10h2q2 -3 12 -9t12 -6q19 -2 40 6t37 24t25.5 37t7.5 51l-1 2q0 1 -1.5 6.5t-2.5 6.5q-9 1 -24 -0.5t-30.5 -1t-31.5 5t-24 13.5q-10 15 -19.5 30t-10.5 35q0 23 9.5 49t25 47t36.5 35.5t41 16t35.5 -8.5t18.5 -38q2 -10 -4 -25.5t-17 -16.5
q-7 -1 -12 3t-9.5 7.5t-9.5 6.5t-13 2q-23 -2 -41.5 -21.5t-16.5 -51.5q1 -22 14 -28t29.5 -8t34 0t28.5 0q14 -3 29.5 -18t19.5 -30q4 -52 -10 -83.5t-41 -53.5t-57.5 -32.5t-63.5 -12.5q-17 -2 -28 1.5t-16 27.5z" />
    <glyph glyph-name="T" unicode="T" horiz-adv-x="269" 
d="M110 190q0 3 2 15t4 27l3 25q2 12 2 15l2 28q2 25 2.5 98.5t-9.5 95.5q-18 -4 -35.5 -3t-34.5 3l-14 1q-2 1 -3 4t0 5q-10 22 10 32t48.5 10t65.5 0.5t47 5t18 4.5q12 -1 20 -10.5t7 -21.5q-1 -15 -11 -19.5t-22 -6.5t-25.5 0t-15.5 -3l-2 -20q3 -139 2 -185t-4 -93
q-1 -25 -7 -36.5t-34 -9.5q-5 0 -8.5 5.5t-4.5 11.5t-2 12.5t-1 9.5z" />
    <glyph glyph-name="U" unicode="U" horiz-adv-x="279" 
d="M29 399q-4 37 -3 63.5t9 67.5q3 9 6.5 13.5t9.5 4.5q14 0 21 -14q0 -8 1 -36l8 -103q3 -31 4 -43t3.5 -33t9 -41.5t15.5 -33.5t23 -12q18 1 29.5 25.5t17 63.5t10 72.5t7.5 69t8.5 61t16.5 25.5t20.5 -9.5t11.5 -26.5q1 -19 -3.5 -36.5t-6.5 -34.5q-3 -38 -8 -80
t-14.5 -90t-29.5 -83t-53.5 -37t-53 22.5t-32 60.5t-19 79.5t-8.5 84.5z" />
    <glyph glyph-name="V" unicode="V" horiz-adv-x="258" 
d="M88 176q1 78 -12.5 152t-58.5 179l2 9q0 12 5.5 23t14.5 10t17.5 -5t10.5 -14l51 -203q10 32 15.5 48.5t13.5 35.5t16.5 40t11.5 27q7 15 10 23.5l6 17t9 15t15 16.5q8 -4 18 -12.5t9 -22.5q-1 -9 -3 -13t-4 -7.5t-6 -8.5t-10 -16q-20 -43 -32.5 -73.5t-21 -64t-13 -67.5
t-9.5 -80q-2 -11 -9.5 -24t-17.5 -12t-16 10t-12 17z" />
    <glyph glyph-name="W" unicode="W" horiz-adv-x="349" 
d="M211 160q-2 6 -6 19.5t-11 49t-9 47t-4 20t-2 10.5t-1 13.5t-7 11.5l-2 -1q-14 -36 -21.5 -79t-5.5 -85q-3 -14 -10 -15t-14 -1q-14 0 -19.5 8t-9.5 30l-57 305v50q0 8 6 8h9q10 0 16.5 -2.5t11.5 -19.5l40 -235l4 15q3 9 6.5 21t6.5 21l5 26q3 12 8 46t7.5 57.5t5 32
t15.5 23.5q6 0 16 -3t12 -14l29 -245l46 245q2 14 10 22.5t18 8.5q13 0 16.5 -13t3.5 -29q0 -1 -1 -2v-11q0 -2 -4.5 -11t-14.5 -58t-18 -98t-17 -85t-21 -73q-2 -16 -8.5 -17t-15 -1t-13.5 8z" />
    <glyph glyph-name="X" unicode="X" horiz-adv-x="277" 
d="M27 200q3 5 14 22t23 39t21 40l26 41q3 6 2 18q-2 24 -14.5 41.5t-28 38t-28 37t-14.5 41.5q-2 30 20 32h6q4 -1 5.5 -1.5t9.5 -13.5l15 -16q2 -3 10 -16t16 -28l16 -38q8 -14 10 -16q4 -8 7 -8q8 0 16.5 22t17 47t19 46t24.5 23q10 0 18 -12.5t9 -25.5q0 -1 -1 -4l1 -9
q-11 -21 -21 -33l-18 -31q-9 -13 -15 -31.5t-14 -42.5q0 -2 -1 -6l1 -7q1 -17 8.5 -34t14.5 -32t22 -40t21 -43l1 -12q1 -15 -6 -25.5t-20 -11.5q-10 -1 -20 20l-56 125q-17 -16 -28 -35t-18 -43t-16.5 -44.5t-27.5 -21.5q-11 -1 -19 13.5t-8 27.5v7z" />
    <glyph glyph-name="Y" unicode="Y" horiz-adv-x="276" 
d="M107 173v30q1 22 1 47t-1 46v33q0 23 -5.5 42.5t-14 37t-29.5 52t-34 54.5q0 1 -1 6v3q0 22 19 22q15 0 23 -11t15.5 -23.5t24.5 -41.5t32 -29h3l11 17q26 25 34.5 39.5t16.5 27t11 16.5t7.5 7.5t9.5 3.5q13 0 17 -6t4 -20q0 -16 -8.5 -29.5t-29 -32t-32 -30.5t-18.5 -27
q-4 -6 -6 -24l-2 -42q-1 -24 -1 -45v-32q0 -5 -1 -20v-58q1 -13 1 -20q-5 -9 -9 -12t-12 -3q-20 0 -26 22z" />
    <glyph glyph-name="Z" unicode="Z" horiz-adv-x="290" 
d="M44 151q-14 0 -16 22.5t1 28.5t7.5 11.5t9.5 9.5t10 15l56 90q4 7 12.5 24t24.5 50t23 53t7 27.5t-5 7.5l-43 -1q-34 -1 -47.5 -4.5t-27.5 -4.5q-10 -1 -14.5 8t-5.5 22t12.5 25t27.5 12h6q4 -1 5 -1h11l40 -1q11 -1 20.5 -2t12.5 -1q1 0 6.5 1.5t11.5 2.5l11 4h8
q1 1 8 1h23q8 2 11 0q9 -18 9 -33t-29.5 -74.5t-44.5 -86.5l-34 -53q-6 -13 -14.5 -22t-18 -30t-13.5 -24l2 -15q1 -8 5 -8l138 6q5 0 5 -10q-13 -48 -27 -48q-42 -2 -93 -2.5t-91 0.5z" />
    <glyph glyph-name="bracketleft" unicode="[" horiz-adv-x="229" 
d="M92 147q-12 0 -22.5 3.5t-17.5 11t-7 22.5v11l1 30q1 6 1 8v211q3 10 2.5 29t2 36t10 28t26.5 7l70 11h2q9 0 15 -7.5t6 -15.5t-4.5 -13t-14.5 -10l-55 -11q-6 -39 -9 -76.5t-3 -152.5v-25.5t3 -33.5q1 -10 16.5 -15t32.5 -9.5t32 -9t19 -12.5q-6 -14 -12 -26t-23 -12
q-12 0 -28 4t-43 17z" />
    <glyph glyph-name="backslash" unicode="\" horiz-adv-x="248" 
d="M35 524q0 8 8 16.5t14 8.5q15 0 24 -15q11 -18 13 -34.5t10 -37.5q1 -4 8 -21l30 -85q7 -16 9.5 -21.5t11.5 -29t18.5 -48.5t17.5 -47t8 -28q0 -14 -7.5 -23t-19.5 -9t-18.5 13.5t-10.5 23.5l-10 26q-7 21 -15.5 45t-16 45t-9.5 27q-1 1 -3.5 7.5t-6.5 13.5l-6 13
q-2 5 -3 6l-21 73q-6 18 -12 35t-9 25l-3 11q-1 8 -1 10z" />
    <glyph glyph-name="bracketright" unicode="]" horiz-adv-x="193" 
d="M52 156q0 11 5 17.5t12 11.5t15 9.5t14 12.5q5 58 3.5 127.5t-1.5 126.5q0 12 -0.5 21t-4.5 21q-7 -1 -18 -1t-21.5 2t-18 7.5t-7.5 16.5q0 6 3 13.5t11 7.5h37q8 0 20 1t23 0t19 -6t8 -17q0 -63 -1 -136t-1 -136q0 -20 2.5 -38.5t2.5 -37.5q0 -7 -10 -15t-23 -15
t-25.5 -11.5t-17.5 -4.5q-26 0 -26 23z" />
    <glyph glyph-name="asciicircum" unicode="^" horiz-adv-x="200" 
d="M97 550q-9 0 -17 -4l-14 -10q-7 -5 -14 -9.5t-15.5 -4.5t-10.5 3t-2 10.5t10 22t24 28t28.5 24t23.5 10.5h13q6 -1 13 -5q-5 -20 1 -30t15 -15.5t17.5 -10t8.5 -13.5q0 -30 -28 -30q-10 0 -16 5.5t-11.5 11.5t-11 11.5t-14.5 5.5z" />
    <glyph glyph-name="underscore" unicode="_" horiz-adv-x="399" 
d="M36 141q0 10 8 15.5t19 7.5t22 2h19h46t46 1q27 0 53.5 2.5t53.5 2.5h25q8 -1 14 -1h10q2 -2 5 -7t4.5 -7t3 -5t1.5 -4q0 -13 -7 -19.5t-17 -9.5t-21 -3h-20q-50 0 -100 -0.5t-99 3.5q-9 1 -20.5 -0.5t-21.5 -0.5t-17 5.5t-7 17.5z" />
    <glyph glyph-name="grave" unicode="`" horiz-adv-x="149" 
d="M30 576q0 19 19 19q7 0 18.5 -4.5t21.5 -11.5t17.5 -16t7.5 -17q0 -11 -8 -20.5t-20 -9.5q-8 0 -18 6.5t-18.5 15.5t-14 19.5t-5.5 18.5z" />
    <glyph glyph-name="a" unicode="a" horiz-adv-x="196" 
d="M107 173q-1 1 -6.5 -4.5t-20.5 -15.5q-12 0 -25.5 6t-20.5 15.5t-11 21t-4 22.5q0 58 25 82.5t63 22.5v5q1 3 1 4q0 11 -5.5 13t-14.5 2q-11 0 -19.5 -5t-19.5 -5q-22 0 -22 22q0 15 16.5 26.5t31.5 11.5t33 -2.5t32 -10.5q1 -2 4 -7t6 -11t5.5 -11.5t2.5 -8.5v-13
q1 -3 1 -5q0 -20 -3 -38.5t-3 -44.5q4 -31 9 -38t14 -9.5t9 -13.5t-6.5 -17t-14.5 -9.5t-16.5 -3.5t-13 2t-7.5 5l-7 7q-4 3 -13 5zM65 221q0 -7 2 -12t11.5 -4.5t14 11t5.5 24t1 22.5v15h-20q-1 0 -6.5 -21.5t-7.5 -27.5v-7z" />
    <glyph glyph-name="b" unicode="b" horiz-adv-x="216" 
d="M28 194q0 51 3.5 105t5.5 105v104q1 14 4 26t20 12q4 0 11 -1t7 -9v-145q18 0 35.5 2t36.5 2h35q11 -5 12.5 -16t1.5 -21q0 -29 -8 -68t-25 -69.5t-43 -51t-61 -20.5q-22 0 -28.5 13t-6.5 32zM75 270v-22q1 -9 1 -19l2 -20q1 -10 1 -13h9l3 3q4 3 8.5 7.5l9 9l7 7t6 8
t4.5 6.5l27 102q1 0 1 2v3q0 8 -5 9h-11q-17 0 -33 -7t-26 -21q0 -3 -1 -10l-2 -15q0 -8 -1 -15v-15z" />
    <glyph glyph-name="c" unicode="c" horiz-adv-x="222" 
d="M20 243q0 22 6 53.5t18 52.5t31 34.5t45 13.5q19 0 32 -3l35 -11q9 -5 12 -14.5t3 -19t-10 -11.5t-17 -2q-13 0 -22 7.5t-21 7.5q-16 0 -28.5 -8.5t-20.5 -28.5t-12.5 -35.5t-4.5 -28.5q0 -32 12 -42.5t42 -10.5q17 0 28.5 2t29.5 13q5 -1 9.5 -5t4.5 -9q0 -15 -12 -24
t-28 -14.5t-32.5 -7t-25.5 -1.5q-18 0 -32 8t-23.5 21.5t-14 29.5t-4.5 33z" />
    <glyph glyph-name="d" unicode="d" horiz-adv-x="248" 
d="M169 212q-12 -4 -19.5 -13t-16.5 -21t-20.5 -19.5t-32.5 -7.5q-2 0 -8 -1h-8l-29 33q-4 4 -5 7q-6 7 -5.5 18t-1.5 21q0 30 6 64t19.5 54.5t33 34t46.5 14.5q8 2 15 -1t15 -3h5q3 11 2 40.5t0 48t7 42.5t20.5 25.5t26.5 -16.5l2 -59q-2 -2 -3.5 -47t-3 -89.5t-1.5 -102.5
l2 -26q5 -51 -3.5 -58.5t-21 -4.5t-17.5 9t-6 11zM76 213q1 -6 8 -5h9q15 0 26.5 10t18.5 24.5t11 37.5t2 39q0 12 -10 16.5t-18 3.5q-14 0 -23.5 -9.5t-14.5 -22.5t-8 -35.5t-3 -35.5z" />
    <glyph glyph-name="e" unicode="e" horiz-adv-x="236" 
d="M29 313q19 37 36 54.5t38.5 25.5t47.5 4q22 -6 34.5 -14.5t19 -20t9 -25t2.5 -33.5l-2 -8q-2 -11 -10.5 -16t-20 -7.5t-23 -4.5t-18.5 -2q-19 -4 -38.5 -6t-38.5 -1l-1 -3q2 -13 6 -23.5t12.5 -19t23.5 -12t27 -5.5q25 -2 42 8.5t36 5.5q5 -1 5 -4.5v-7.5q-2 -12 -15 -21
t-27 -15.5t-33 -7.5t-29 1q-37 2 -53.5 15.5t-25.5 32.5t-11.5 41t7.5 69zM148 356q-12 2 -24 -2t-22 -12.5t-17 -15.5t-9 -19l-2 -5q4 -1 13.5 -0.5t20.5 1.5t20 2h13q6 1 18.5 4.5t14 12t-5.5 20t-20 14.5z" />
    <glyph glyph-name="f" unicode="f" horiz-adv-x="212" 
d="M74 176q1 4 2.5 15.5t3 24t3 23.5t1.5 15.5t-0.5 16t-2 33t-2.5 32.5v15q-10 0 -25.5 -0.5t-22.5 5.5t-7 17q0 8 6.5 13.5t22 8.5t19.5 3q0 16 1 39t8.5 44.5t21.5 36.5t36 15q9 0 21.5 -5.5t15.5 -13.5q1 -2 -0.5 -9t-3.5 -10q-6 -13 -15.5 -11.5t-18 -1t-14.5 -16.5
t-6 -64q5 0 35 3q15 0 26 -4t11 -20q0 -21 -12 -23.5t-31 -2t-22 -8.5q0 -6 -1 -20l-2 -39q0 -17 -1 -31v-21q0 -8 1 -21.5t-0.5 -26.5t-6.5 -22t-18 -9q-8 0 -14.5 5.5t-8.5 13.5z" />
    <glyph glyph-name="g" unicode="g" horiz-adv-x="259" 
d="M18 46q0 3 -1 10v10q0 30 20.5 54.5t41.5 44.5q1 1 1 5.5t-0.5 5t-5 9t-5 10t-1.5 5.5t-2 9t-2 0v5q-2 10 -6 16l-8 12q-6 6 -9 13t-3 17q0 41 9.5 58t24 28.5t34.5 19.5t40 14q9 3 13 9.5t9 11.5t19 4q10 -2 20 -13v-31q0 -23 -3 -49t-9 -51.5t-18 -33.5
q-8 -7 -23 -12.5t-23 -12.5q0 -1 -1 -1v-3l15 2q15 1 33.5 -5.5t36 -14.5t23.5 -17v-10q1 -8 1 -10q0 -18 -4.5 -36.5t-12.5 -29.5t-19.5 -20t-25.5 -23q-32 -7 -65.5 -11t-67.5 -4q-14 0 -26 15zM79 78q13 0 32.5 3.5t37 10t30 23t12.5 35.5h-56l-56 -64v-8zM150 351
q-40 -13 -53 -31.5t-7 -60.5q26 -15 47 10.5t20 51.5q4 23 -7 30z" />
    <glyph glyph-name="h" unicode="h" horiz-adv-x="211" 
d="M135 210q-1 35 -3 68.5t-3 67.5q-2 0 -9 2.5t-9 1.5q-8 -4 -20 -18.5t-12 -23.5q0 -7 -1.5 -29.5t0.5 -30.5l-1 -78q0 -4 -4 -7.5t-11.5 -7.5t-10.5 -4q-9 0 -17 8.5t-8 18.5q0 8 4 16.5t6 16.5l-1 28q1 19 1 54v61t0.5 49.5t-0.5 65.5t-1 51q0 11 5 19.5t17 8.5t21.5 -5
t9.5 -19q1 -20 -3 -64t-4 -64l1 -10q11 8 21 9.5t24 1.5h15q8 1 15.5 -0.5t13.5 -5.5t8 -12v-28q1 -24 -2 -47l-1 -46q0 -24 0.5 -47t3.5 -50q-6 -9 -20 -9q-10 0 -15.5 6.5t-7.5 16.5t-2 20v15z" />
    <glyph glyph-name="i" unicode="i" horiz-adv-x="121" 
d="M32 173v46q-3 47 -0.5 87t9.5 65.5t24.5 26t17.5 -18.5l1 -14q0 -54 3.5 -108.5t-6.5 -96.5q-2 -6 -10 -8t-13 -2q-10 0 -18 6.5t-8 16.5zM34 484q0 12 8.5 18t19.5 6q28 3 29 -28q0 -9 -8 -16t-16 -8q-11 0 -22 7.5t-11 20.5z" />
    <glyph glyph-name="j" unicode="j" horiz-adv-x="155" 
d="M19 75q0 9 6 12.5t13 6.5l16 4q8 1 12 5t5.5 13.5t3.5 14.5v53q0 78 -2.5 100t-2.5 45q0 7 1.5 18t5 21.5t10.5 18t18 7.5q6 0 13.5 -3t7.5 -11v-74q0 -2 -1 -9l-2 -16q0 -9 -1 -16.5t-1 -9.5q-1 -75 0.5 -100.5t-2.5 -48t-17.5 -38.5t-44.5 -16q-10 0 -24 4.5t-14 18.5z
M78 481q0 15 10.5 21.5t25.5 6.5q8 0 9.5 -5.5t1.5 -12.5q0 -12 -7.5 -22.5t-20.5 -10.5q-9 0 -14 7.5t-5 15.5z" />
    <glyph glyph-name="k" unicode="k" horiz-adv-x="212" 
d="M22 180q0 35 8 68t8 67q0 43 -3 86.5t-3 85.5v41q4 13 11 15.5t16 2.5q11 0 19 -7.5t8 -22.5v-167l53 45h9q11 0 18.5 -6t7.5 -18.5t-8 -20.5t-19 -13.5t-22.5 -14t-18.5 -19.5l-1 -3q0 -1 0.5 -3t2.5 -6.5t2 -5.5l73 -83q3 -3 6.5 -11.5t3.5 -11.5q1 -7 -3 -11.5t-10 -8
t-11 -6t-8 -2.5h-2l-12 14q-9 11 -19.5 22.5t-19.5 21.5t-13 14q-2 5 -7.5 8.5t-6.5 3.5l-5 -5q0 -3 -1 -13l-2 -18q0 -11 -1 -19.5t-1 -12t-2 -10t-3 -6.5h-34q-8 0 -9 12t-1 18z" />
    <glyph glyph-name="l" unicode="l" horiz-adv-x="120" 
d="M31 175v42l2 116q1 34 1.5 73.5t0.5 51.5q0 2 -1 8l-2 13q0 21 -1 27v9q0 11 11 22t21 11t17 -6.5t7 -16.5q0 -57 -4 -110t-1 -88q3 -32 2 -86t2 -80q-4 -9 -13.5 -10t-17 -1t-16 3t-8.5 13v9z" />
    <glyph glyph-name="m" unicode="m" horiz-adv-x="274" 
d="M199 170q0 33 2.5 65.5t2.5 65.5v49q-10 -8 -17 -20.5t-11 -27t-5.5 -29t0.5 -25.5q-2 -8 -8 -9t-12 -1q-12 0 -21 10.5t-18 24.5l-16 33q-8 14 -17 21l-5 -9l-1 -9q-1 -9 -1.5 -21l-1.5 -36t-1 -32v-54q-4 -14 -18 -14q-19 0 -23.5 9t-4.5 26q0 43 6 90t3 87q4 13 10 23
t20 10h12l37 -42q1 -1 2.5 -5t2.5 -5l18 -28h2q2 -1 3 -1q6 0 13 14l18 29q10 15 23 28.5t30 13.5q8 0 13 -1.5t10 -12.5v-53q0 -45 -3.5 -87t-1.5 -87q-4 -6 -9.5 -8t-11.5 -2q-9 0 -15 6t-6 14z" />
    <glyph glyph-name="n" unicode="n" horiz-adv-x="211" 
d="M108 316q-27 -9 -27.5 -48t-3.5 -61t-9.5 -39.5t-18 -17.5t-19 8t-7.5 19q0 17 2.5 29.5t6.5 43.5l-1 132q0 13 8.5 15.5t16.5 2.5q12 0 17.5 -9t5.5 -13.5v-11.5q16 0 24 3.5t15 9.5l15 10q7 3 17 3q7 0 17 -2.5t10 -15.5l1 -149q10 -13 12.5 -23t2.5 -26
q0 -5 -0.5 -14.5t-18.5 -11.5q-12 -2 -17.5 5.5t-12.5 20t-10.5 26t-4.5 23.5l-1 85z" />
    <glyph glyph-name="o" unicode="o" horiz-adv-x="209" 
d="M26 208q0 1 -3 9t-1.5 17.5t3 18t2.5 17.5l-2 29q5 20 8 40t9.5 36t19.5 19q21 3 41.5 4t38.5 -13.5t31 -35.5t13 -51q3 -12 -1.5 -27.5t-10.5 -35.5t-16 -31t-16 -20q-8 -14 -21.5 -21t-28.5 -10q-21 -1 -43.5 12.5t-22.5 42.5zM64 230q8 -21 26 -19q22 4 35.5 27
t21.5 45l-2 5v5q0 35 -20 46.5t-40 -5.5q-9 -1 -13.5 -14t-4.5 -30.5t-1.5 -34t-1.5 -25.5z" />
    <glyph glyph-name="p" unicode="p" horiz-adv-x="248" 
d="M27 87q0 35 6 63t8 57v29q0 9 1 30t1 69l2 44q1 21 1.5 27t8 8.5t15.5 2.5q11 0 17 -6t10 -18q13 0 34.5 -1t41.5 -7.5t35 -20.5t15 -37q0 -38 -9.5 -51t-22 -24.5t-26 -21t-22.5 -13.5q-2 -2 -8.5 -5t-14.5 -6.5t-15 -6t-8 -3.5q-6 -4 -9 -11.5t-4 -17.5t-1 -19v-18
q0 -3 2 -19t2 -18q0 -13 -6.5 -27.5t-20.5 -14.5q-33 0 -33 36zM87 267q0 -10 2.5 -16t11.5 -6q2 0 5 0.5t5 1.5t8 5.5t13 9.5t13 9.5t8 6.5q5 5 12 11t7 26t-5.5 24t-13.5 4h-56l-5 -6l-2 -15l-2 -37q0 -8 -1 -12v-6z" />
    <glyph glyph-name="q" unicode="q" horiz-adv-x="220" 
d="M133 111q0 2 1.5 12.5t2 32t2 30t2 11.5t-2.5 15t-4 15q-10 -20 -22.5 -25.5t-31.5 -7.5q-27 0 -44.5 20t-17.5 50q-2 21 5.5 49t20 44.5t30 27.5t37.5 11q11 0 17 -3t16 -12q8 13 11.5 22t19.5 9q14 0 19.5 -11.5t5.5 -23.5v-5q0 -4 -0.5 -5.5t-3.5 -11.5l-2 -24
q-2 -12 -4.5 -30t-1.5 -21v-11t-0.5 -23t-0.5 -26.5v-21.5v-39t-2.5 -53.5t-9 -38.5t-17.5 -16q-15 -2 -19 12t-4 26zM64 266q0 -10 3 -17.5t13 -7.5q8 1 18 8t19 15.5t14 18.5t5 31q0 9 -10 19.5t-17 10.5q-10 0 -18.5 -7t-15 -16t-9 -27.5t-2.5 -27.5z" />
    <glyph glyph-name="r" unicode="r" horiz-adv-x="225" 
d="M66 178q0 21 4 38t4 36q0 23 -3.5 39.5t-8.5 43.5q-5 7 -11.5 8.5t-14 2t-13 4.5t-5.5 16.5t11 20.5t22 9q8 0 15.5 -4.5t12.5 -10t10 -9.5t10 -4q2 1 8.5 6t16 11.5t20 12t22.5 6.5q16 0 29.5 -6.5t13.5 -25.5q0 -11 -7 -16.5t-16.5 -7.5t-20 -2.5t-17.5 -2.5
q-2 -3 -4.5 -9t-6 -12.5t-6.5 -12.5t-4 -9q-3 -11 -2.5 -35.5t-1.5 -47.5t-9 -43t-26 -22q-11 0 -16.5 7.5t-5.5 18.5z" />
    <glyph glyph-name="s" unicode="s" horiz-adv-x="220" 
d="M21 179q0 13 3 15.5t16 2.5q9 0 15.5 -3t15.5 -3q6 0 18.5 3.5t25.5 9t22.5 12t9.5 13t-5 10t-11 5.5l-12 2q-6 0 -9 1t-10 5l-14 7q-7 3 -13.5 6.5t-8.5 5.5q-11 14 -15.5 22.5t-4.5 22.5q0 33 24.5 55.5t61.5 22.5q19 0 32 -5t13 -25q0 -22 -23 -22q-6 0 -10.5 2.5
t-10.5 2.5q-15 0 -25 -8.5t-15 -21.5q13 -17 31.5 -24t35.5 -13.5t28.5 -18t11.5 -37.5q0 -14 -10 -25t-23 -16q-4 -2 -15 -7t-23.5 -10t-24 -9.5t-15.5 -6.5h-14q-8 0 -17 1t-17 4t-13 9t-5 15z" />
    <glyph glyph-name="t" unicode="t" horiz-adv-x="226" 
d="M90 202q0 15 2.5 31t2.5 49t-0.5 42t-4.5 25q-4 -2 -16 -5.5t-16 -5.5h-3q-11 0 -23 6.5t-12 20.5q0 6 2 14.5t8 10.5l62 9q1 4 3 12.5t4 18.5t4 19t3 12q3 10 8 23t18 13q11 0 18.5 -9t7.5 -21q0 -9 -3 -15t-7 -12t-7 -13t-3 -15v-8q1 -7 5 -7h49q5 0 7.5 -11.5
t2.5 -14.5q0 -8 -4 -15.5t-12 -7.5q-3 0 -3.5 0.5t-4.5 2t-9 3t-9 3.5t-5 2q-3 0 -8.5 -2t-5.5 -4l5 -50q0 -30 -5 -56q2 -46 8 -46.5t8 -0.5q17 3 31 3q4 0 10 -1t6 -7q0 -3 -1.5 -6l-3.5 -7q-23 -12 -32.5 -20.5t-35.5 -8.5q-20 0 -30.5 13.5t-10.5 35.5z" />
    <glyph glyph-name="u" unicode="u" horiz-adv-x="231" 
d="M29 305l2 29q1 20 3.5 30.5t8 19t14.5 10.5q6 2 10 -1.5t7 -10t4 -13t1 -12.5q0 -25 -4.5 -45t-9.5 -76q-1 -9 2 -17.5t12 -8.5h4q5 4 13.5 12.5l17.5 17.5t16.5 20t10.5 22q2 8 3.5 26.5t5.5 39.5t11 36t19 14t18.5 -6t6 -19t-3 -34.5t-5.5 -38t-7.5 -37.5t-5.5 -33
q-1 -9 3 -14.5t8.5 -10t8 -10t2.5 -12.5q3 -19 -5 -25t-20.5 -3t-23 17.5t-16.5 32.5q-11 0 -18 -8.5t-13.5 -18.5t-15 -19t-21.5 -9q-15 0 -24.5 15t-15 33.5t-5 57.5t1.5 49z" />
    <glyph glyph-name="v" unicode="v" horiz-adv-x="218" 
d="M85 164q-6 24 -17 49.5t-21.5 51t-18.5 57t-8 54.5q0 9 4 15t15.5 6t18 -8.5t10 -20.5t5 -23.5t3 -23.5t4.5 -20.5t7 -18.5t7 -18.5t5 -11.5h2q4 0 7 5q2 3 6 11.5t8.5 18.5t8 25.5t6 20.5t5 15.5t6.5 20.5t10.5 16.5t16.5 6.5h10q4 -1 7.5 -2t3.5 -3v-32
q-19 -16 -29.5 -46t-16.5 -55t-11 -51t-12 -48q-6 -5 -14 -5t-16 4t-12 10z" />
    <glyph glyph-name="w" unicode="w" horiz-adv-x="273" 
d="M138 237l-15 -73q-2 -12 -9 -13.5t-13 -1.5q-12 0 -18 7.5t-9.5 16.5t-14 53t-17.5 63l-13 38l-8 22v8q0 14 7 23.5t20 9.5q6 0 11.5 -1t7.5 -11l30 -106l5 -6q1 2 3 11.5t4.5 19t4.5 17.5l4 13q3 12 8 40.5t19 28.5t16.5 -17t5 -41t2.5 -44t8 -20h3q3 9 14 48t25 65
q19 10 24.5 3.5t5.5 -21.5v-13q-1 -4 -4.5 -11.5t-6.5 -18.5t-9 -29.5t-11 -41t-7.5 -46.5t-5.5 -50q-4 -5 -10.5 -8.5t-12.5 -3.5t-13.5 2.5t-9.5 9.5l-15 82z" />
    <glyph glyph-name="x" unicode="x" horiz-adv-x="263" 
d="M130 236q-15 -2 -23.5 -13.5t-19 -28.5t-20 -29t-23.5 -14h-13q-3 2 -7.5 7.5t-6.5 9.5v2q0 7 6.5 14t12 15.5t10 14.5t8.5 9l13 18q6 6 12 12.5t10 12.5l3 7l1 2q0 12 -16.5 30.5t-25 26.5t-19.5 21t-11 25q0 8 6.5 13t13.5 6q12 1 22.5 -12.5t18.5 -23.5l36 -38
q7 -10 12 -9q8 1 19.5 18.5t21.5 30.5t21.5 23.5t24.5 10.5q7 1 17 -2t9.5 -13.5t-10.5 -22t-25 -29t-28 -28t-23 -24.5q7 -11 16.5 -19.5t19.5 -17t24.5 -30.5t15.5 -39q0 -12 -5.5 -16.5t-16.5 -4.5q-13 -1 -22.5 8.5t-17.5 22.5l-22 34q-12 21 -19 20z" />
    <glyph glyph-name="y" unicode="y" horiz-adv-x="231" 
d="M42 75q0 24 11 45.5t16.5 29t16.5 29.5t11 45q0 9 -6 19t-24 40.5t-31 58t-13 38.5q0 21 19 21q8 0 14.5 -5t19 -27.5t29.5 -49.5t24 -31l3 11q15 33 18 41l6 18q3 8 4 11q4 10 12 20.5t19 10.5t18 -4.5t7 -16.5q0 -5 -5 -19.5t-17.5 -44.5t-20 -46t-11.5 -23l-59 -145
q-1 -5 -2.5 -14t-5 -17t-9 -14t-14 -6t-19.5 7t-11 18z" />
    <glyph glyph-name="z" unicode="z" horiz-adv-x="246" 
d="M45 155q-9 0 -14 13t4.5 21.5t18.5 16t26 46.5t22 43l26 59q-14 3 -39.5 2t-34.5 0t-15.5 6t-6.5 17q0 10 2.5 13.5t11.5 7.5q5 0 26 -1t35.5 -0.5t40.5 0.5t31 1.5t6 1.5q8 1 18.5 -1.5t13.5 -11t-14.5 -23t-33 -42t-39.5 -74t-24 -53t10 -6.5l76 3q9 0 14.5 -7.5
t5.5 -14.5t-10 -11l-23 -10l-65 -1q-12 0 -31.5 1.5t-37.5 3.5z" />
    <glyph glyph-name="braceleft" unicode="{" horiz-adv-x="217" 
d="M28 343q0 11 8 17.5t18.5 10.5t22 7t18 6.5t9.5 19t4.5 33t2.5 34t6 25.5q2 5 6.5 15t11 19t15 16t17.5 7q25 0 25 -21q0 -7 -4 -14t-9.5 -14.5t-11 -14t-8.5 -13.5q-4 -12 -4 -24t1 -23.5t0 -23.5t-7 -21l-6 -8q-4 -7 -9.5 -14t-10 -13t-6.5 -9l18 -38v-87q0 -9 6 -14.5
t13 -10.5l13 -10q6 -4 6 -12q0 -13 -8.5 -15.5t-19.5 -2.5q-31 0 -43 15.5t-15.5 38t-2.5 46.5t-4 42q-3 10 -11.5 14t-17.5 8.5t-16 10.5t-7 18z" />
    <glyph glyph-name="bar" unicode="|" horiz-adv-x="113" 
d="M28 181q0 12 1 21.5t4 22.5v282q0 14 5.5 28.5t22.5 14.5q4 0 11.5 -1.5t7.5 -9.5v-360q0 -10 -8 -19.5t-18 -9.5q-14 0 -20 10t-6 21z" />
    <glyph glyph-name="braceright" unicode="}" horiz-adv-x="200" 
d="M25 164v4q1 1 1 2q3 2 9.5 8t14 13t14 13t8.5 9q5 5 12 16t7 16v2q0 1 -1 7l-4 23v78q-18 31 -18 66v7l2 15q1 6 1.5 12.5t0.5 8.5v4q0 12 -6 19t-12.5 12t-12.5 11t-6 14t4.5 15t13.5 7q16 0 28 -7t20.5 -18t13 -24.5t4.5 -26.5q0 -15 -2.5 -29.5t-2.5 -29.5
q0 -12 8.5 -15.5t19 -4.5t19.5 -4t9 -14q0 -8 -5 -14.5t-11.5 -13t-11.5 -13t-5 -14.5v-96q0 -1 -3 -6t-7.5 -11t-9.5 -12l-8 -10q-14 -16 -26 -28t-33 -12q-10 0 -17.5 5t-7.5 16z" />
    <glyph glyph-name="asciitilde" unicode="~" horiz-adv-x="366" 
d="M127 365q-18 0 -26.5 -7.5t-13.5 -16t-10 -16t-18.5 -7.5t-19.5 8.5t-6 19.5q0 15 8 28t20 22.5t27 14.5t29 5q29 0 51 -14.5t42 -32.5h9q2 2 7 8l22 22q6 5 8 7q6 5 13 5h15q16 0 31.5 -5.5t15.5 -25.5q0 -7 -4 -13.5t-11.5 -6.5t-13.5 2.5t-13 2.5h-5q-3 0 -5 -1
q-14 -21 -27.5 -36t-41.5 -15q-15 0 -25 8t-18 18t-17.5 18t-22.5 8z" />
    <glyph glyph-name="uni4E00" unicode="&#x4e00;" 
d="M251 352v8q0 6 6 7q47 6 93.5 7.5t92.5 3.5q6 0 30 4q24 2 52 4.5t52 6.5q24 2 30 2h34q8 0 24 -1l36 -6q20 -5 34 -12q14 -9 14 -19q0 -22 -19 -22q-32 0 -67.5 8t-66.5 9q-4 0 -16.5 -1.5t-28.5 -1.5l-27 -2q-12 -1 -16 -1h-5q-10 -1 -38.5 -3.5t-60 -5t-59.5 -5
t-38 -3.5q-3 -1 -9 -2q-6 -3 -8 -3h-3q-20 0 -28 5t-8 23z" />
    <glyph glyph-name="uni4E0A" unicode="&#x4e0a;" 
d="M212 90q0 11 9.5 17t19.5 8q2 0 9 2l18 2q10 0 18 1q10 1 15 1h27q21 -1 42 -1h43q21 -1 28 -1q0 5 -0.5 17.5t-1 27t-2.5 27.5v18l4 54q4 37 7.5 77.5t6.5 74.5l5 46q6 50 18.5 94.5t20.5 92.5q1 6 4 6h9q25 0 25 -25v-13l-38 -193l4 -5q34 17 63 24.5t65 7.5
q3 0 10.5 -1.5t14 -5.5t9.5 -8q5 -6 4 -12q-1 -3 -6 -6q-4 -5 -6 -5h-60q-5 -3 -18 -7q-12 -6 -26 -12t-27 -11l-17 -9q-16 -7 -24 -25q-6 -19 -6.5 -42.5t0.5 -46.5q3 -22 3 -37v-53q0 -30 6 -54h11q60 0 117.5 11.5t118.5 11.5h18q16 -1 19.5 -1.5t9.5 -6.5t7 -9v-1
q1 -1 1 -2l-1 -3q-1 -2 -5.5 -6t-5.5 -4l-285 -39h-3q-35 0 -67 4q-32 2 -67 2h-45q-14 -1 -27 -1h-17q-5 -5 -11.5 -5.5t-12.5 -0.5q-11 0 -22 6q-9 6 -9 19z" />
    <glyph glyph-name="uni4E0B" unicode="&#x4e0b;" 
d="M418 93q0 96 8.5 190.5t8.5 191.5v59q0 29 -6 58q-1 6 -10 6q-18 0 -36 -6q-16 -6 -33 -13q-16 -9 -33 -15q-15 -6 -32 -6q-10 0 -18 4q-7 2 -7 13t12.5 20t28.5 16t32 12l25 7l31 5q23 4 48.5 8t47.5 9q23 3 32 6q24 6 46 17q24 9 47.5 18.5t48 17t50.5 7.5q14 0 22 -7
q10 -8 10 -23q0 -7 -6 -13q-5 -8 -11 -12q-20 2 -38 1.5t-37 -6.5q-17 -5 -43.5 -13.5t-51.5 -16l-45 -13.5q-18 -6 -19 -6l-12 -6q4 -75 0 -148q-2 -73 -7 -146l-7 -148q-4 -74 -1 -148q-2 -2 -5.5 -6t-5.5 -6q-3 0 -13 3q-10 1 -15 3q-1 0 -3 2.5t-3 3.5v80zM604 324
q0 3 6 6l15 4q10 1 13 1q9 -1 20.5 -9.5t11.5 -20.5q0 -6 -1 -11t-10 -8q-15 2 -36 11q-19 7 -19 27z" />
    <glyph glyph-name="uni4EA4" unicode="&#x4ea4;" 
d="M236 4q0 2 1 3l181 160l6 11q-11 7 -32 13.5t-40.5 15t-35.5 19.5q-14 11 -14 25q0 10 3 13q5 4 15 7q13 -8 30 -16q17 -10 35 -17t36.5 -12t34 -5t34.5 27.5t37 61.5q20 32 36.5 59.5t29.5 27.5q10 0 13.5 -8t3.5 -17q0 -24 -15 -44q-16 -22 -34 -41.5t-33.5 -40.5
t-15.5 -44q0 -6 5 -9q7 -3 25 -12l38 -19l39 -20q18 -10 25 -13q1 -2 7.5 -6.5t15.5 -10.5l16 -12q10 -6 15 -9.5t8.5 -9t3.5 -11.5q0 -9 -6.5 -11t-12.5 -2t-9 1q-1 0 -3 0.5t-4 3t-10 5.5q-31 17 -62.5 33.5t-63.5 32.5q-6 4 -15 9q-10 3 -21 8l-16 9q-8 2 -9 2h-5
l-192 -170q-9 -8 -13 -9q-2 -2 -11.5 -2t-15 3t-5.5 15v6zM314 381q0 10 9.5 21.5t20.5 11.5q7 0 21.5 -8.5t14.5 -18.5q0 -8 -5 -12.5t-12 -8t-16 -5.5q-7 -2 -12 -2q-21 0 -21 22zM589 449q0 6 4 14q20 3 30 5q12 1 29 1q9 0 22 -3q13 -5 13 -17q0 -17 -16 -20
q-15 -5 -27 -5h-17q-8 0 -18 2q-8 3 -14 9q-6 4 -6 14zM236 517q0 14 18 23q54 6 105.5 21.5t103 32t104.5 28.5t107 12h26q16 0 30.5 -3t23.5 -10q11 -8 11 -22q0 -4 -1 -11t-11 -5l-44 3h-51q-25 -1 -50 -4t-47 -9l-264 -71q-6 -6 -14 -6h-15q-11 0 -21 5q-11 3 -11 16z
M449 738q11 0 23 -2.5t22 -6.5q11 -6 17.5 -15t6.5 -23q0 -9 -4.5 -12t-12.5 -3q-24 0 -38 21t-14 41z" />
    <glyph glyph-name="uni5173" unicode="&#x5173;" 
d="M304 16v3q1 2 1 3l110 279l27 100v16q-20 0 -38 -4.5t-35 -10t-35 -9.5q-17 -6 -35 -9q-8 -1 -15 9q-6 8 -6 15v9q0 3 6 6q6 1 21 6q17 4 35.5 9.5t35 10.5t23.5 6q2 1 12 1.5t20 3.5q12 1 22 3.5t12 8.5q1 3 4 13t6.5 20t6.5 20l5 13q0 1 -2 2v3q-63 0 -124 -16
q-20 -5 -36.5 -11t-37.5 -6q-9 0 -24 9q-13 7 -13 19q0 9 6 17q111 20 221 32q112 11 224 11q18 6 33 6q9 0 13 -8.5t4 -16.5q0 -12 -14.5 -17.5t-32.5 -7t-35 0.5h-23q-5 0 -17.5 -1.5t-26.5 -1.5l-28 -2q-12 -1 -17 -1q4 -6 -1 -14q-3 -7 -9 -8q-2 0 -8.5 2.5t-7.5 2.5
q-6 0 -9.5 -7.5t-4.5 -15.5q-2 -10 -2 -18v-12q48 0 95.5 5t96.5 5h9q6 0 12.5 -1.5t11.5 -3.5q5 -4 5 -10v-2q-2 -3 -5.5 -11t-5.5 -11q-59 0 -119 -4.5t-118 -18.5q-9 -13 -12.5 -28.5t-6 -31.5t-6 -32t-13.5 -28q-4 -12 -14.5 -42.5t-23.5 -63.5q-12 -35 -23 -65.5
t-16 -42.5q-1 -4 -5 -11q-3 -9 -8 -17l-10 -16q-3 -8 -4 -12v-13q1 -3 6 -8q-8 -12 -14 -17.5t-16 -5.5t-18.5 6.5t-8.5 16.5zM608 150q0 9 7 10h12q11 0 26 -5q17 -6 32.5 -15.5t26.5 -22t11 -27.5q0 -9 -3.5 -11.5t-13.5 -2.5q-12 0 -28.5 6.5t-32.5 17.5t-26.5 24
t-10.5 26zM371 676q0 9 6 18q6 7 14.5 12.5t19 8t17.5 2.5v-22q0 -12 -4 -23q-2 -11 -8.5 -18t-20.5 -7q-24 0 -24 29zM607 700q0 25 24 25q13 0 22.5 -9.5t9.5 -23t-6.5 -24t-22.5 -10.5q-14 0 -20.5 15t-6.5 27z" />
    <glyph glyph-name="uni59CB" unicode="&#x59cb;" 
d="M557 313q40 21 85.5 38.5t91.5 17.5q19 0 40.5 -4t36.5 -19l81 -94q3 -2 6 -9q5 -9 8.5 -18.5t6.5 -17.5q3 -10 2 -15l-17 -17q-6 -4 -17 -12q-9 -8 -10 -9l-281 -143q-7 -5 -12 -5.5t-12 -0.5q-15 0 -31 5t-29 14.5t-23 22.5q-8 13 -8 30v186l3 5l11.5 11.5t13 12.5
t10.5 9q11 10 19 14q10 2 25 -2zM519 77q11 -13 19 -20q10 -9 25 -9q3 0 6 1h5l231 105q1 0 7.5 4.5t14.5 10.5q10 6 18 14q9 6 14.5 9.5t7.5 5.5q4 3 4 7v4q-3 6 -8 17q-3 9 -3 11l-83 81q-6 7 -17.5 9.5t-20.5 2.5q-32 0 -68.5 -13t-63.5 -26q-9 -4 -22 -10l-26 -14
q-14 -8 -24 -12q-10 -6 -11 -8l-11 -10v-21q0 -35 1 -69zM117 82q0 12 4 23.5t8 20.5q1 1 5 4l6 2q15 4 32.5 19.5t17.5 34.5q0 11 -11.5 19.5t-25.5 19.5q-13 9 -24.5 21t-11.5 29v6q1 4 1 5l39 120h-62q-6 0 -8 8.5t-2 14.5q0 8 7 14.5t17 12t21 9.5q11 2 18 2h3
q1 -2 3.5 -8t2.5 -9q2 0 13 2.5t14 8.5l77 176q-6 9 -6 14q0 3 5 8t11 10q7 3 13 5.5t9 1.5q14 -5 15.5 -11t1.5 -16q0 -25 -14.5 -43t-23.5 -41q-9 -18 -21.5 -48t-17.5 -50q11 1 26 4q15 1 32 3l34 3q18 1 32 1h24q17 0 32 -3q17 -2 28.5 -8t11.5 -19v-9q-23 -4 -44 -5.5
t-44 -4.5q-2 -3 -6 -11q-3 -10 -4 -12q-2 -4 -6.5 -16.5t-10.5 -26.5l-11 -28l-6 -17q-2 -6 -11 -20q-7 -16 -17 -31q-8 -17 -16 -32t-11 -21v-3q0 -7 13.5 -14.5t31.5 -13.5q20 -6 38.5 -10t26.5 -2q5 -6 5.5 -10.5t0.5 -10.5q0 -9 -6.5 -14.5t-16 -8t-20.5 -5t-18 -7.5
l6 11l-83 39h-2q-6 0 -15 -6l-7 -11q-5 -9 -11 -17l-12 -16t-8 -10q-7 -10 -21.5 -24.5t-16.5 -14.5h-28q-4 0 -5 6.5t-1 9.5zM161 280q0 -3 9 -11q8 -10 19 -19.5t20.5 -16t13.5 -2.5l4 6q2 1 9 13.5t15 28.5q10 15 18.5 30.5t13.5 25.5q3 7 8.5 21.5t11 28.5t8.5 24
q5 11 5 14v6h-25l-36 -3q-18 -2 -34 -5q-14 -3 -15 -9l-45 -126v-6zM502 450q0 3 4 13l27 56q16 28 32 60.5t31 61.5l21 40q3 9 7.5 21t18.5 12q4 0 13 -6q1 -2 1 -7v-8q0 -17 -6.5 -28.5t-10.5 -27.5l-89 -176v-7q0 -21 12 -25q14 -6 30 -6h20q4 1 16 6q14 4 27.5 9.5
t26 10.5l17.5 7q3 1 11 5.5t18 10t18 9.5q10 5 13 8q3 1 6 6l6 6v1q0 23 -11.5 41.5t-11.5 38.5q0 13 13.5 17.5t22.5 4.5h3l33 -115q2 -3 -3 -9t-7 -8q-24 -15 -52 -30q-26 -17 -55 -31.5t-59 -22.5q-30 -10 -59 -10q-12 0 -27 6t-28 16.5t-23 23.5q-8 12 -6 26z" />
    <glyph glyph-name="uni5F00" unicode="&#x5f00;" 
d="M317 54q2 4 4 11.5t5 16.5l5 17q2 7 3 9l41 237h-7q-28 -9 -65.5 -21.5t-70.5 -12.5q-25 0 -25 23q0 8 12.5 19.5t29.5 22.5q17 9 34.5 16.5t26.5 7.5q3 0 6.5 -1.5t0.5 -4.5l-10 -22q7 1 19 4q12 1 23 5q12 2 21.5 7t12.5 12q5 13 9 42q3 27 8 56t12 50.5t18 21.5
q6 0 9 -11v-15q1 -12 1 -15q0 -6 -1 -16v-15q0 -5 -2.5 -17.5t-6.5 -25.5q-2 -14 -5 -26q-2 -14 -3 -18h23l134 40v174q0 6 7 10.5t12 5.5q-2 1 -9 1h-10q-49 0 -93.5 -16.5t-91.5 -27.5q-1 -4 -9.5 -12.5t-11.5 -9.5q0 -1 -6 -1h-9q-7 0 -16.5 0.5t-19.5 3.5q-8 2 -14.5 8
t-6.5 16q0 13 12 16l241 66h14q10 0 24.5 1.5t27.5 0.5q14 -3 23.5 -9t9.5 -20.5t-9 -17.5q-10 -5 -24 -4v-2q0 -10 2 -19q4 -10 4 -20q0 -22 -4 -45q-2 -23 -2 -46v-6q1 -3 2 -15q3 -14 4 -17q25 9 42 10.5t41 1.5h18q14 -1 29.5 -4t26.5 -10.5t7 -19.5q0 -1 -5 -5
q-3 -4 -6 -7h-6q-1 0 -8 1l-28 5h-10q-28 0 -56 -5q-26 -4 -51 -16q-16 -80 -15 -166q2 -88 4 -164q2 -10 -5 -11t-12 -1q-13 0 -19 16t-8 37.5t-2 43.5q2 20 2 30q0 50 2 102q2 50 2 102h-4l-148 -45q-2 0 -6 -13t-5 -20q-13 -61 -24 -127q-11 -68 -14 -131q-4 -11 -11 -24
q-6 -15 -20 -15q-8 0 -14 4t-6 13v6z" />
    <glyph glyph-name="uni63D0" unicode="&#x63d0;" 
d="M440 17q2 4 7 12t10.5 18t8.5 18q5 8 7 12q3 6 8.5 23.5t11.5 35.5t12.5 31.5t11.5 13.5q9 0 10 -4q2 -6 2 -15q0 -24 -8.5 -47.5t-8.5 -47.5h11q8 -1 18 -1t18 2.5t8 8.5l11 132h-3q-10 0 -20 -2q-10 -4 -19 -4q-6 0 -13 4q-6 2 -6 10v2l1 1q0 2 2 7q1 2 3 4l126 61h10
q8 0 12 -3q6 -3 14 -3q4 0 7 5q3 3 6 9l7 10q5 3 13 3q10 0 14.5 -6t4.5 -15q0 -3 -3 -4l-5 -5q-5 -2 -8 -3t-17.5 -5.5t-16.5 -5.5l-43 -22q-11 -7 -19 -12l-9 -4v-76q10 0 18 5q9 3 17 8l19 10q10 3 21 3q6 0 9 -3q4 -5 4 -10q0 -14 -14.5 -20.5t-32.5 -12.5
q-18 -8 -32 -17q-15 -11 -15 -33v-9q0 -9 6 -10h115q5 0 19.5 -3.5t30 -9t27.5 -12.5t12 -13q0 -9 -4.5 -10.5t-12.5 -1.5q-16 0 -37 3q-19 4 -35 9h-136q-4 1 -15 3.5t-13 2t-12 -2.5q-8 -2 -19 -3q-10 -3 -19 -4.5t-11 -1.5q-10 -1 -16 -5t-11 -7q-3 -5 -8 -7
q-4 -4 -10.5 -4t-13.5 3.5t-7 10.5v4zM209 111q2 -2 5 -4q5 -2 6 -2q17 0 28.5 19.5t18.5 46.5q7 25 10 49.5t3 35.5q-24 0 -43 -7.5t-36 -7.5q-7 0 -13 6t-6 15q0 7 12.5 12.5t29.5 10.5q18 3 33 6q17 2 24 1q0 3 2 13q1 8 1.5 19t0.5 21q1 8 1 12v49q0 15 -1 29v19
q-24 0 -45.5 -10.5t-45.5 -10.5q-13 0 -18 3q-5 1 -5 15q0 9 7 21t17 12h10q1 0 4 -3q5 -3 6 -3l14 6q12 5 14 5q4 2 18 6l20 4q2 5 3 21q2 14 2 19v5q0 3 -1.5 11.5t-4.5 18.5l-2 18q-1 8 -3 12q-3 6 -8 6q-7 0 -11 -9q-2 -9 -8 -13q-5 0 -5 5q0 1 1 5q3 3 4 6
q5 8 6.5 16.5t3 15.5t5 13t12.5 10q17 -12 27.5 -29.5t16.5 -38t8 -40.5q2 -22 4 -40q13 5 28.5 -1t15.5 -23q0 -4 -1 -12t-7 -8t-8 1q0 1 -1.5 2.5t-7 2.5t-21.5 1v-23q2 -16 2 -22q0 -8 -3 -34q-1 -26 -3 -56q-2 -32 -3.5 -58t-1.5 -34q-1 -18 -5 -48t-13 -57
q-9 -29 -24 -49q-16 -22 -39 -22q-15 0 -25.5 12t-10.5 28h6zM506 484l33 213q2 4 4 9q2 2 4 6q1 2 3.5 2t8.5 -1.5t8 -4.5q1 0 5 -5l6 -6q1 0 5 4q4 2 6 2l16 4q11 2 23 6q12 2 21 4.5t12 2.5h27q59 0 90 -32q31 -34 52 -84q1 -1 1 -6v-7q0 -22 -12.5 -51.5t-34 -60.5
t-50 -62.5t-58.5 -55.5t-60 -38q-30 -16 -56 -16q-24 0 -35 16.5t-16 39.5q-4 21 -3.5 45t0.5 40v36zM544 475q0 -10 -1 -31t0.5 -41.5t7.5 -36.5q8 -15 22 -15q26 0 63.5 25.5t72 62t58.5 77.5q26 40 26 69q0 19 -10 37q-8 18 -22.5 32.5t-32.5 23.5t-37 9q-24 0 -47 -8.5
t-47 -8.5q-10 0 -13 5q-4 3 -6 12l-6 -11l-28 -181v-20zM589 450q0 6 3 16q4 8 13 7q17 -2 20 -6.5t3 -15t-3 -14.5t-13.5 -4t-16.5 2.5t-6 14.5z" />
    <glyph glyph-name="uni95EF" unicode="&#x95ef;" 
d="M742 58v6q1 3 1 5t3 10t5.5 17.5t5 17t2.5 10.5q2 11 6.5 37t7.5 56q5 29 8.5 55.5t5.5 37.5q-3 27 -3 63t-2 75q-3 37 -9.5 73.5t-23.5 65.5q-15 29 -41.5 46.5t-68.5 17.5q-14 0 -28 -4l-24 -10q-12 -6 -24 -9q-12 -5 -25 -5q-15 0 -20.5 6.5t-5.5 22.5q0 12 19 20.5
t44.5 13t50 7t33.5 2.5q28 0 49.5 -11t45.5 -27q31 -23 47.5 -59t23.5 -77t8.5 -82.5t3.5 -73.5q-1 -14 -5 -50q-3 -38 -8 -78q-5 -42 -10 -78q-3 -38 -5 -52l-3 -16q-1 -10 -5 -22q-2 -14 -4.5 -24.5t-3.5 -14.5q-2 -6 -8 -6h-9q-34 0 -34 34zM539 71q0 11 4.5 15.5
t10.5 8.5q7 2 13.5 6t10.5 12q13 23 18.5 36.5t5.5 34.5t-16 36q-14 13 -37 22.5t-50 18t-49.5 20t-38.5 28.5q-14 15 -14 42q0 24 6.5 52t15.5 50q0 1 4 5.5t7.5 10.5t5.5 11q4 5 5 6t2 6q3 4 3 5h-5q-7 0 -13 -2q-5 -4 -11.5 -4t-17 8t-7.5 15q5 12 15.5 19.5t23.5 12.5
q15 4 28.5 5t24.5 1q19 0 37 -3.5t32 -11.5q14 -10 22.5 -24.5t8.5 -37.5q0 -8 -4 -21q-2 -13 -8 -25q-6 -14 -15 -22q-8 -10 -20 -10q-10 0 -12 9q-2 7 -2 13q0 17 6 30t6 30q0 30 -28 30q-10 0 -22 -17.5t-22 -40t-16.5 -45.5t-6.5 -33v-14q1 -12 1 -16q1 -8 14.5 -16.5
t33 -17t43.5 -18t46.5 -20t38.5 -24.5q18 -14 27 -30q1 -3 1 -14v-13q0 -15 -6.5 -39.5t-18.5 -49t-27.5 -42.5t-33.5 -18q-14 0 -17 9.5t-3 20.5zM166 124q-2 17 1.5 35t8.5 36q5 16 9 34q6 17 9 32q1 12 5 42.5t9 65.5q5 33 8.5 63.5t4.5 42.5q0 4 -1 12v33q1 7 1 9
q2 10 8.5 19.5t17.5 9.5q4 0 16 -12q14 -12 14 -21q0 -21 -4 -43.5t-8.5 -46t-9.5 -46t-6 -41.5v-49q0 -2 -4 -16q-2 -13 -6 -28l-7 -34q-3 -17 -6 -26q0 -2 -2.5 -8.5t-2.5 -8.5v-6l3 -12q1 -7 1.5 -13t0.5 -8v-13q1 -13 1 -19q0 -4 -1 -16v-18q-2 -8 -7 -9t-11 -1
q-12 0 -19.5 6t-12 15t-7 19.5t-3.5 20.5zM314 168q0 7 7.5 13t15.5 9l93 15l11 6q1 0 10 2h36q16 -2 32.5 -4t29.5 -8t13 -17q0 -4 -5 -9q-3 -6 -7 -8q-37 -6 -73 -7t-74 -9q-3 -1 -10 -3.5t-16 -4.5q-8 -4 -16.5 -6t-13.5 -2q-13 0 -24 10q-9 10 -9 23zM358 657q0 12 9 14
t16 2q15 0 23 -2q10 -4 24 -14v-9q0 -13 -10.5 -19t-22.5 -6q-10 0 -24.5 11t-14.5 23z" />
    <glyph glyph-name="uni9898" unicode="&#x9898;" 
d="M209 9q17 45 33 78q17 31 33 70q-10 -7 -26 -9q-16 -4 -29 -4v13l28 28q1 1 11 6t25 11l29 12q14 6 24 9q10 5 28 11t35 6q10 0 11.5 -6t1.5 -13v-8l-10 -4q-8 -2 -16 -5l-14 -5q-8 -2 -9.5 -2.5t-4.5 -3.5q-1 -2 -1 -3v-43q21 9 34 15.5t31 6.5q6 0 12 -1t6 -8
q0 -13 -13 -19q-12 -8 -28 -11q-14 -5 -27.5 -9t-14.5 -13q-1 -3 0 -15q3 -12 3 -15q51 0 100 -12q51 -13 104 -13q4 0 7 6q-7 6 -10 13q-1 7 -1 17q0 32 8 65q10 32 20 63q2 10 4 12q4 2 2 11l32 159v6q-5 -4 -10 -11l-7 -11l-8 -17q-6 -13 -13 -27l-14 -27q-6 -13 -8 -18
q-6 -13 -8 -30.5t-3 -29.5q-1 -2 -6 -6q-3 -3 -6 -5h-2q-12 0 -17.5 8.5t-7.5 19.5t-2 23q2 11 2 17v15q0 10 1 11l5 13q4 9 9 18.5t10.5 18t7.5 10.5q16 -5 33.5 22.5t31.5 65.5q14 36 24 70.5t10 44.5q-17 0 -31.5 -8.5t-31.5 -8.5q-9 0 -14.5 2t-5.5 12v11q1 6 6 9
q7 4 31 11.5t51.5 13.5t51.5 11q24 3 31 2q3 0 13.5 -4t14.5 -7v-3q1 -4 1 -5q0 -10 -9 -12q-9 -4 -21 -4h-24q-12 0 -19 -3q-6 -27 -14 -53.5t-18 -51.5l4 -5q14 4 21.5 5t20.5 1q44 0 64 -28q22 -30 22 -70q0 -11 -2.5 -34.5t-8 -48t-14 -44t-20.5 -23.5q-2 -1 -14.5 2.5
t-12.5 11.5v3q16 38 27 68.5t11 75.5q0 26 -16 41q-15 13 -42 13q-3 0 -13 -4q-8 -3 -17.5 -8t-19.5 -11q-8 -6 -13 -11v-2q0 -6 6.5 -9t10.5 -4v-26q0 -54 -15 -103q-13 -49 -24 -103q-6 -31 -10.5 -64.5t-22.5 -61.5q43 -8 92.5 -8t89.5 -3q7 -3 8 -8q3 -5 3 -11
q0 -12 -6.5 -15.5t-16.5 -3.5q-59 0 -118 7q-57 7 -115 16l-116 14q-58 7 -115 7q-18 0 -28 -9q-10 -11 -17 -23l-11 -22q-4 -9 -13 -7q-11 4 -11 17v5zM321 177q-11 0 -19.5 -14t-14.5 -31.5t-9 -34t-3 -24.5q21 0 39 8q6 22 6.5 47.5t0.5 48.5zM710 157q8 18 23.5 18
t21.5 -12q8 -13 8 -26q-15 0 -29.5 3.5t-23.5 16.5zM209 325v35q0 27 2 63q1 34 3.5 72.5t6 71t8.5 54.5q6 20 14 20h5q9 -17 10.5 -25.5t1.5 -24.5q0 -62 -6 -123t-6 -122v-23q1 -13 11 -17q27 3 63 21t68.5 45t54.5 60t22 66v165q0 8 -6.5 16t-15.5 12.5t-18.5 7.5
t-16.5 3q-27 0 -55 -11q-29 -9 -52 -22q-8 -6 -12.5 -17t-15.5 -11q-4 0 -6.5 5t-3.5 11v22q0 15 19 24q19 11 44 17.5t49 10.5q26 4 38 4q42 0 61.5 -22.5t29.5 -60.5v-13q1 -11 1 -22v-34q0 -52 -6 -91t-23 -72q-15 -32 -44.5 -59t-75.5 -55q-1 -1 -11 -5
q-8 -4 -19.5 -9.5t-23 -10.5t-18.5 -8q-9 -5 -13.5 -5.5t-13.5 -0.5q-30 0 -40 15.5t-10 42.5zM309 405q-2 8 5 13q8 3 14 3q13 0 24 -9q11 -11 11 -25h-13q-9 0 -17 1.5t-15.5 5t-8.5 11.5z" />
  </font>
</defs>
</svg>
